<?xml version="1.0" encoding="UTF-8" standalone="no"?>
<svg
   xmlns:dc="http://purl.org/dc/elements/1.1/"
   xmlns:cc="http://creativecommons.org/ns#"
   xmlns:rdf="http://www.w3.org/1999/02/22-rdf-syntax-ns#"
   xmlns:svg="http://www.w3.org/2000/svg"
   xmlns="http://www.w3.org/2000/svg"
   id="svg8"
   version="1.1"
   viewBox="0 0 60 20"
   height="20mm"
   width="60mm">
  <defs
     id="defs2">
    <linearGradient
       x1="0"
       y1="0"
       x2="1"
       y2="0"
       gradientUnits="userSpaceOnUse"
       gradientTransform="matrix(1368.8408,-1328.6801,-1328.6801,-1368.8408,354.63281,1376.4326)"
       spreadMethod="pad"
       id="linearGradient881">
      <stop
         style="stop-opacity:1;stop-color:#00e7ff"
         offset="0"
         id="stop877" />
      <stop
         style="stop-opacity:1;stop-color:#00a2ff"
         offset="1"
         id="stop879" />
    </linearGradient>
    <clipPath
       clipPathUnits="userSpaceOnUse"
       id="clipPath891">
      <path
         d="M 0,1500 H 2000 V 0 H 0 Z"
         id="path889" />
    </clipPath>
  </defs>
  <metadata
     id="metadata5">
    <rdf:RDF>
      <cc:Work
         rdf:about="">
        <dc:format>image/svg+xml</dc:format>
        <dc:type
           rdf:resource="http://purl.org/dc/dcmitype/StillImage" />
        <dc:title></dc:title>
      </cc:Work>
    </rdf:RDF>
  </metadata>
  <g
     id="layer2" />
  <path
     d="m 32.904076,0.6921769 a -8.4710195,8.3802568 0 0 1 7.968521,5.5370644 -8.4710195,8.3802568 0 0 1 5.524623,-2.0276296 -8.4710195,8.3802568 0 0 1 8.47106,8.3803153 -8.4710195,8.3802568 0 0 1 -3.284402,6.625598 H 5.3807729 a -8.4710195,8.3802568 0 0 1 -0.06802,-1.058915 -8.4710195,8.3802568 0 0 1 8.4710581,-8.3803175 -8.4710195,8.3802568 0 0 1 1.756074,0.1821655 -8.4710195,8.3802568 0 0 1 -0.0013,-0.1518707 -8.4710195,8.3802568 0 0 1 8.471062,-8.3803174 -8.4710195,8.3802568 0 0 1 3.855101,0.9182685 -8.4710195,8.3802568 0 0 1 5.039385,-1.6443615 z"
     style="opacity:1;fill:#ffffff;fill-opacity:1;stroke:none;stroke-width:0.238972;stroke-linecap:square;stroke-linejoin:round;stroke-miterlimit:4;stroke-dasharray:none"
     id="path942" />
</svg>
