<?xml version="1.0" encoding="UTF-8" standalone="no"?>
<svg
   xmlns:dc="http://purl.org/dc/elements/1.1/"
   xmlns:cc="http://creativecommons.org/ns#"
   xmlns:rdf="http://www.w3.org/1999/02/22-rdf-syntax-ns#"
   xmlns:svg="http://www.w3.org/2000/svg"
   xmlns="http://www.w3.org/2000/svg"
   id="svg8"
   version="1.1"
   viewBox="0 0 60 20"
   height="20mm"
   width="60mm">
  <defs
     id="defs2">
    <linearGradient
       x1="0"
       y1="0"
       x2="1"
       y2="0"
       gradientUnits="userSpaceOnUse"
       gradientTransform="matrix(1368.8408,-1328.6801,-1328.6801,-1368.8408,354.63281,1376.4326)"
       spreadMethod="pad"
       id="linearGradient881">
      <stop
         style="stop-opacity:1;stop-color:#00e7ff"
         offset="0"
         id="stop877" />
      <stop
         style="stop-opacity:1;stop-color:#00a2ff"
         offset="1"
         id="stop879" />
    </linearGradient>
    <clipPath
       clipPathUnits="userSpaceOnUse"
       id="clipPath891">
      <path
         d="M 0,1500 H 2000 V 0 H 0 Z"
         id="path889" />
    </clipPath>
  </defs>
  <metadata
     id="metadata5">
    <rdf:RDF>
      <cc:Work
         rdf:about="">
        <dc:format>image/svg+xml</dc:format>
        <dc:type
           rdf:resource="http://purl.org/dc/dcmitype/StillImage" />
        <dc:title></dc:title>
      </cc:Work>
    </rdf:RDF>
  </metadata>
  <g
     id="layer2" />
  <path
     d="M 27.276957,0.6921769 A 8.4710195,8.3802568 0 0 0 19.308436,6.2292413 8.4710195,8.3802568 0 0 0 13.783813,4.2016117 8.4710195,8.3802568 0 0 0 5.3127529,12.581927 8.4710195,8.3802568 0 0 0 8.5971553,19.207525 H 54.80026 A 8.4710195,8.3802568 0 0 0 54.86828,18.14861 8.4710195,8.3802568 0 0 0 46.397222,9.7682925 8.4710195,8.3802568 0 0 0 44.641148,9.950458 8.4710195,8.3802568 0 0 0 44.642448,9.7985873 8.4710195,8.3802568 0 0 0 36.171386,1.4182699 8.4710195,8.3802568 0 0 0 32.316285,2.3365384 8.4710195,8.3802568 0 0 0 27.2769,0.6921769 Z"
     style="opacity:1;fill:#ffffff;fill-opacity:1;stroke:none;stroke-width:0.238972;stroke-linecap:square;stroke-linejoin:round;stroke-miterlimit:4;stroke-dasharray:none"
     id="path942" />
</svg>
