<?xml version="1.0" encoding="UTF-8" standalone="no"?>
<svg
   xmlns:dc="http://purl.org/dc/elements/1.1/"
   xmlns:cc="http://creativecommons.org/ns#"
   xmlns:rdf="http://www.w3.org/1999/02/22-rdf-syntax-ns#"
   xmlns:svg="http://www.w3.org/2000/svg"
   xmlns="http://www.w3.org/2000/svg"
   width="400"
   height="550"
   viewBox="0 0 105.83333 145.52084"
   version="1.1"
   id="svg8">
  <defs
     id="defs2" />
  <metadata
     id="metadata5">
    <rdf:RDF>
      <cc:Work
         rdf:about="">
        <dc:format>image/svg+xml</dc:format>
        <dc:type
           rdf:resource="http://purl.org/dc/dcmitype/StillImage" />
        <dc:title></dc:title>
      </cc:Work>
    </rdf:RDF>
  </metadata>
  <g
     id="layer1">
    <g
       transform="matrix(0.71237718,0,0,0.71237718,4.6994782,7.5548339)"
       id="g1194">
      <g
         id="g873"
         style="fill:#3aafa9;fill-opacity:1;stroke:none;stroke-opacity:1"
         transform="matrix(2.8635498,0,0,2.8635498,-665.94694,-166.89222)">
        <path
           style="fill:#3aafa9;fill-opacity:1;stroke:none;stroke-width:0.264583;stroke-opacity:1"
           d="m 255.73869,60.478249 v 1.058333 c 0.18521,0 0.34396,-0.02646 0.52917,-0.02646 0.18521,0 0.34396,0 0.52916,0.02646 v -1.058333 c 1.03188,0.05292 2.01084,0.264583 2.91042,0.608541 l -0.39687,0.9525 c 0.34395,0.132292 0.66145,0.264584 0.97895,0.423334 l 0.39688,-0.978959 c 0.50271,0.238125 0.9525,0.529167 1.40229,0.846667 l 1.13771,-1.137708 c -1.93146,-1.455209 -4.33917,-2.328334 -6.95854,-2.328334 -6.42938,0 -11.64167,5.212292 -11.64167,11.641667 v 1.058333 h 1.5875 v -1.058333 c 0,-1.084792 0.18521,-2.143125 0.50271,-3.122084 l 0.97896,0.396875 c 0.10583,-0.343958 0.23812,-0.661458 0.37041,-0.978958 l -0.97895,-0.396875 c 0.39687,-0.899583 0.9525,-1.74625 1.5875,-2.460625 l 0.74083,0.740833 c 0.23812,-0.264583 0.47625,-0.529166 0.74083,-0.767291 l -0.74083,-0.740834 c 0.71437,-0.661458 1.53458,-1.243541 2.43417,-1.693333 l 0.39687,0.978959 c 0.3175,-0.15875 0.635,-0.291042 0.97896,-0.423334 l -0.39688,-0.978958 c 0.89959,-0.343958 1.87855,-0.529167 2.91042,-0.582083 z"
           id="path854" />
        <path
           style="fill:#3aafa9;fill-opacity:1;stroke:none;stroke-width:0.264583;stroke-opacity:1"
           d="m 265.81932,63.838457 -1.13771,1.137708 c 0.29104,0.449792 0.55562,0.926042 0.76729,1.402292 l -0.97896,0.423333 c 0.13229,0.3175 0.26458,0.661458 0.37042,0.978958 l 0.97896,-0.396875 c 0.3175,0.978959 0.5027,2.037292 0.5027,3.122084 v 1.058333 h 1.5875 v -1.058333 c 0,-2.487084 -0.76729,-4.7625 -2.0902,-6.6675 z"
           id="path856" />
        <path
           style="fill:#3aafa9;fill-opacity:1;stroke:none;stroke-width:0.264583;stroke-opacity:1"
           d="m 255.52702,70.029707 c -0.0529,0.02646 -0.0794,0.07938 -0.13229,0.132291 -0.37041,0.449792 -0.3175,1.11125 0.13229,1.508125 0.4498,0.370417 1.11125,0.3175 1.50813,-0.132291 l 8.22854,-9.763125 z"
           id="path858" />
      </g>
      <g
         id="g894"
         style="fill:#3aafa9;fill-opacity:1"
         transform="matrix(1.6265502,0,0,1.6265502,-400.253,-92.517539)">
        <path
           style="fill:#3aafa9;fill-opacity:1;stroke-width:0.264583"
           d="m 283.23646,82.644494 -0.26459,-2.38125 -2.91041,2.910417 0.15875,1.375833 -4.23334,4.233334 c -0.37041,-0.185209 -0.79375,-0.3175 -1.24354,-0.3175 -1.45521,0 -2.64583,1.190625 -2.64583,2.645833 0,1.455208 1.19062,2.645833 2.64583,2.645833 1.45521,0 2.64584,-1.190625 2.64584,-2.645833 0,-0.449792 -0.10584,-0.846667 -0.29105,-1.217083 l 4.23334,-4.233334 1.37583,0.15875 2.91042,-2.910417 z"
           id="path875" />
        <path
           style="fill:#3aafa9;fill-opacity:1;stroke-width:0.264583"
           d="m 283.44812,86.560327 -0.34395,0.370417 -0.50271,-0.05292 -0.55563,-0.07937 c 0.74084,1.270001 1.19063,2.725209 1.19063,4.312709 0,4.656667 -3.81,8.466667 -8.46667,8.466667 -4.65666,0 -8.46666,-3.81 -8.46666,-8.466667 0,-4.656667 3.81,-8.466667 8.46666,-8.466667 1.56104,0 3.04271,0.423333 4.31271,1.190625 l -0.0529,-0.529167 -0.0794,-0.529166 0.37041,-0.370417 0.18521,-0.185208 c -1.42875,-0.740834 -3.01625,-1.164167 -4.73604,-1.164167 -5.55625,0 -10.05416,4.497917 -10.05416,10.054167 0,5.55625 4.49791,10.054167 10.05416,10.054167 5.55625,0 10.05417,-4.497917 10.05417,-10.054167 0,-1.719792 -0.42333,-3.307292 -1.19063,-4.709584 z"
           id="path877" />
        <path
           style="fill:#3aafa9;fill-opacity:1;stroke-width:0.264583"
           d="m 279.18833,89.311994 c 0.23813,0.555625 0.34396,1.164167 0.34396,1.799167 0,2.619375 -2.14312,4.7625 -4.7625,4.7625 -2.61937,0 -4.7625,-2.143125 -4.7625,-4.7625 0,-2.619375 2.14313,-4.7625 4.7625,-4.7625 0.635,0 1.24354,0.132291 1.79917,0.343958 l 1.19062,-1.190625 c -0.89958,-0.47625 -1.905,-0.740833 -2.98979,-0.740833 -3.4925,0 -6.35,2.8575 -6.35,6.35 0,3.4925 2.8575,6.35 6.35,6.35 3.4925,0 6.35,-2.8575 6.35,-6.35 0,-1.084792 -0.26458,-2.090208 -0.74083,-2.989792 z"
           id="path879" />
      </g>
      <g
         id="g911"
         style="fill:#3aafa9;fill-opacity:1"
         transform="matrix(1.7268172,0,0,1.7268172,-403.77496,-143.72638)">
        <path
           style="fill:#3aafa9;fill-opacity:1;stroke-width:0.264583"
           d="m 285.44386,117.30983 c -1.16901,0 -2.11667,-0.94765 -2.11667,-2.11666 0,-1.16901 0.94766,-2.11667 2.11667,-2.11667 1.169,0 2.11666,0.94766 2.11666,2.11667 0,1.16901 -0.94766,2.11666 -2.11666,2.11666 z m 0,-3.175 c -0.5845,0 -1.05834,0.47385 -1.05834,1.05834 0,0.58449 0.47384,1.05833 1.05834,1.05833 0.58449,0 1.05833,-0.47384 1.05833,-1.05833 0,-0.58449 -0.47384,-1.05834 -1.05833,-1.05834 z"
           id="path896" />
        <path
           style="fill:#3aafa9;fill-opacity:1;stroke-width:0.264583"
           d="m 294.70427,114.664 c -0.27744,-4.70244 -4.02881,-8.45381 -8.73125,-8.73125 v -1.5875 h -1.05833 v 1.5875 c -4.70244,0.27744 -8.45381,4.02881 -8.73125,8.73125 h -1.5875 v 1.05833 h 1.5875 c 0.27744,4.70244 4.02881,8.45381 8.73125,8.73125 v 1.5875 h 1.05833 v -1.5875 c 4.70244,-0.27744 8.45381,-4.02881 8.73125,-8.73125 h 1.5875 V 114.664 Z m -3.92641,1.05833 c -0.25424,2.5409 -2.26394,4.55057 -4.80484,4.80484 v -2.159 h -1.05833 v 2.159 c -2.5409,-0.25424 -4.55057,-2.26394 -4.80483,-4.80484 h 2.159 V 114.664 h -2.159 c 0.25426,-2.5409 2.26393,-4.55057 4.80483,-4.80483 v 2.159 h 1.05833 v -2.159 c 2.5409,0.25426 4.55057,2.26393 4.80484,4.80483 h -2.159 v 1.05833 z m -5.86317,-8.20208 v 1.27794 c -3.12489,0.26246 -5.60459,2.74103 -5.86846,5.86581 h -1.27529 c 0.2721,-3.82701 3.31674,-6.87165 7.14375,-7.14375 z m -7.14375,8.20208 h 1.27794 c 0.26246,3.12489 2.74103,5.60459 5.86581,5.86846 v 1.27529 c -3.82701,-0.27209 -6.87165,-3.31673 -7.14375,-7.14375 z m 8.20208,7.14375 v -1.27529 c 3.12582,-0.26265 5.60581,-2.74264 5.86846,-5.86846 h 1.27529 c -0.2721,3.82702 -3.31673,6.87166 -7.14375,7.14375 z m 5.86846,-8.20208 c -0.26265,-3.12581 -2.74264,-5.60581 -5.86846,-5.86846 v -1.27529 c 3.82702,0.2721 6.87165,3.31674 7.14375,7.14375 z"
           id="path898" />
      </g>
      <g
         id="g936"
         style="fill:#3aafa9;fill-opacity:1"
         transform="translate(-106.64054,-5.3453906)">
        <path
           style="fill:#3aafa9;fill-opacity:1;stroke-width:0.264583"
           d="m 171.6139,89.225043 h 5.29166 c 0.4498,0 0.79375,0.343959 0.79375,0.79375 0,0.449792 -0.34395,0.79375 -0.79375,0.79375 h -5.29166 c -0.44979,0 -0.79375,-0.343958 -0.79375,-0.79375 0,-0.449791 0.34396,-0.79375 0.79375,-0.79375 z"
           id="path913" />
        <path
           style="fill:#3aafa9;fill-opacity:1;stroke-width:0.264583"
           d="m 171.6139,91.870877 h 5.29166 c 0.4498,0 0.79375,0.343958 0.79375,0.79375 0,0.449791 -0.34395,0.79375 -0.79375,0.79375 h -5.29166 c -0.44979,0 -0.79375,-0.343959 -0.79375,-0.79375 0,-0.449792 0.34396,-0.79375 0.79375,-0.79375 z"
           id="path915" />
        <path
           style="fill:#3aafa9;fill-opacity:1;stroke-width:0.264583"
           d="m 172.53994,94.51671 c 0.0794,0.899584 0.82021,1.5875 1.71979,1.5875 0.89958,0 1.64042,-0.687916 1.71979,-1.5875 z"
           id="path917" />
        <path
           style="fill:#3aafa9;fill-opacity:1;stroke-width:0.264583"
           d="m 174.25973,73.87921 c 0,0 0,0 0,0 0,0 0,0 0,0 -3.75708,0.02646 -6.79979,3.042708 -6.87916,6.799792 v 0.238125 c 0.0264,0.820208 0.1852,1.613958 0.47625,2.38125 0.29104,0.714375 0.68791,1.375833 1.19062,1.957916 0.635,0.687917 1.32292,2.037292 1.61396,2.619375 0.0794,0.185209 0.26458,0.291042 0.47625,0.291042 h 6.24416 c 0.21167,0 0.39688,-0.105833 0.47625,-0.291042 0.29105,-0.582083 0.97896,-1.931458 1.61396,-2.619375 0.50271,-0.582083 0.92604,-1.243541 1.19063,-1.957916 0.29104,-0.767292 0.44979,-1.561042 0.47625,-2.38125 v -0.238125 c -0.0794,-3.757084 -3.12209,-6.773334 -6.87917,-6.799792 z m 5.29167,7.011458 c -0.0265,0.635 -0.15875,1.27 -0.37042,1.852084 -0.21167,0.529166 -0.50271,1.031875 -0.89958,1.455208 -0.60854,0.740833 -1.13771,1.534583 -1.53459,2.38125 h -2.48708 -2.46062 c -0.42334,-0.846667 -0.9525,-1.640417 -1.53459,-2.38125 -0.37041,-0.423333 -0.68791,-0.926042 -0.89958,-1.455208 -0.23812,-0.582084 -0.34396,-1.217084 -0.37042,-1.852084 v -0.211666 c 0.0529,-2.883959 2.40771,-5.212292 5.29167,-5.23875 v 0 0 c 0,0 0,0 0,0 0,0 0,0 0,0 v 0 0 c 2.88396,0.02646 5.23875,2.328333 5.29167,5.23875 v 0.211666 z"
           id="path919" />
      </g>
      <path
         id="path940"
         fill="#ed7d31"
         d="m 34.759725,83.180582 -3.30729,-3.30729 c -0.44979,-0.44979 -1.05833,-0.60854 -1.64042,-0.50271 l -1.16416,-1.16416 c 1.03187,-1.32292 1.64041,-3.016251 1.64041,-4.815417 0,-4.365626 -3.57187,-7.937501 -7.9375,-7.937501 -4.36562,0 -7.9375,3.571875 -7.9375,7.937501 0,4.365627 3.57188,7.937497 7.9375,7.937497 1.79917,0 3.46605,-0.60854 4.81542,-1.64042 l 1.16417,1.16417 c -0.10584,0.58208 0.0529,1.19063 0.50271,1.64042 l 3.30729,3.30729 c 0.37041,0.37042 0.84666,0.55562 1.32291,0.55562 0.47625,0 0.9525,-0.1852 1.32292,-0.55562 0.68792,-0.74083 0.68792,-1.905 -0.0265,-2.61938 z m -12.43541,-3.46604 c -3.4925,0 -6.35,-2.8575 -6.35,-6.349996 0,-3.4925 2.8575,-6.35 6.35,-6.35 3.4925,0 6.35,2.8575 6.35,6.35 0,3.492496 -2.8575,6.349996 -6.35,6.349996 z"
         style="fill:#3aafa9;fill-opacity:1;stroke-width:0.264583" />
      <path
         style="fill:#3aafa9;fill-opacity:1;stroke-width:0.264583"
         d="m 100.21138,83.180582 3.30729,-3.30729 c 0.44979,-0.44979 1.05833,-0.60854 1.64042,-0.50271 l 1.16416,-1.16416 c -1.03187,-1.32292 -1.64041,-3.016251 -1.64041,-4.815417 0,-4.365626 3.57187,-7.937501 7.9375,-7.937501 4.36562,0 7.9375,3.571875 7.9375,7.937501 0,4.365627 -3.57188,7.937497 -7.9375,7.937497 -1.79917,0 -3.46605,-0.60854 -4.81542,-1.64042 l -1.16417,1.16417 c 0.10584,0.58208 -0.0529,1.19063 -0.50271,1.64042 l -3.30729,3.30729 c -0.37041,0.37042 -0.84666,0.55562 -1.32291,0.55562 -0.47625,0 -0.9525,-0.1852 -1.32292,-0.55562 -0.687924,-0.74083 -0.687924,-1.905 0.0265,-2.61938 z m 12.43541,-3.46604 c 3.4925,0 6.35,-2.8575 6.35,-6.349996 0,-3.4925 -2.8575,-6.35 -6.35,-6.35 -3.4925,0 -6.35,2.8575 -6.35,6.35 0,3.492496 2.8575,6.349996 6.35,6.349996 z"
         fill="#ed7d31"
         id="path951" />
      <g
         id="g1019"
         style="fill:#3aafa9;fill-opacity:1"
         transform="matrix(1.7576144,0,0,1.7576144,-363.66525,-23.234176)">
        <path
           style="fill:#3aafa9;fill-opacity:1;stroke-width:0.264583"
           d="m 226.4525,63.434209 h -1.5875 v 17.991666 h 17.99167 v -1.5875 H 226.4525 Z"
           id="path1004" />
        <path
           style="fill:#3aafa9;fill-opacity:1;stroke-width:0.264583"
           d="m 238.62334,67.932126 1.56104,1.561041 -2.09021,2.090208 -1.5875,-1.5875 -2.64583,2.645834 -1.5875,-1.5875 -4.78896,4.788958 1.11125,1.11125 3.67771,-3.677708 1.5875,1.5875 2.64583,-2.645834 1.5875,1.5875 3.20146,-3.201458 1.56104,1.561042 v -4.233333 z"
           id="path1006" />
      </g>
      <g
         transform="matrix(-1.7576144,0,0,1.7576144,499.03406,-23.234176)"
         style="fill:#3aafa9;fill-opacity:1"
         id="g1025">
        <path
           id="path1021"
           d="m 226.4525,63.434209 h -1.5875 v 17.991666 h 17.99167 v -1.5875 H 226.4525 Z"
           style="fill:#3aafa9;fill-opacity:1;stroke-width:0.264583" />
        <path
           id="path1023"
           d="m 238.62334,67.932126 1.56104,1.561041 -2.09021,2.090208 -1.5875,-1.5875 -2.64583,2.645834 -1.5875,-1.5875 -4.78896,4.788958 1.11125,1.11125 3.67771,-3.677708 1.5875,1.5875 2.64583,-2.645834 1.5875,1.5875 3.20146,-3.201458 1.56104,1.561042 v -4.233333 z"
           style="fill:#3aafa9;fill-opacity:1;stroke-width:0.264583" />
      </g>
      <g
         id="g1043"
         transform="matrix(0.46503634,0,0,0.46503634,25.050146,111.71395)"
         style="fill:#3aafa9;fill-opacity:1">
        <path
           id="path1039"
           d="m 76,14 h 6 V 82 H 14 v -6 h 62 z"
           style="fill:#3aafa9;fill-opacity:1" />
        <path
           id="path1041"
           d="M 19.9,54.9 32,42.8 l 6,6 10,-10 6,6 13.9,-13.9 4.2,4.2 -18.1,18.1 -6,-6 -10,10 -6,-6 -7.9,7.9 L 30,65 H 14 V 49 Z"
           style="fill:#3aafa9;fill-opacity:1" />
      </g>
      <g
         style="fill:#3aafa9;fill-opacity:1"
         transform="matrix(-0.46503634,0,0,0.46503634,110.31866,111.71395)"
         id="g1059">
        <path
           style="fill:#3aafa9;fill-opacity:1"
           d="m 76,14 h 6 V 82 H 14 v -6 h 62 z"
           id="path1055" />
        <path
           style="fill:#3aafa9;fill-opacity:1"
           d="M 19.9,54.9 32,42.8 l 6,6 10,-10 6,6 13.9,-13.9 4.2,4.2 -18.1,18.1 -6,-6 -10,10 -6,-6 -7.9,7.9 L 30,65 H 14 V 49 Z"
           id="path1057" />
      </g>
      <g
         id="g1076"
         transform="translate(-129.83639,26.544427)"
         style="fill:#3aafa9;fill-opacity:1">
        <path
           style="fill:#3aafa9;fill-opacity:1;stroke-width:0.458296"
           d="m 137.1077,129.18714 2.36481,6.94319 c -1.4814,0.97196 -1.89438,2.96077 -0.92242,4.44214 0.9719,1.4814 2.96073,1.89436 4.44213,0.92245 0.90418,-0.59326 1.44863,-1.60211 1.44821,-2.68356 -0.002,-0.41284 -0.0811,-0.82173 -0.23373,-1.20531 l 4.74337,-3.5518 c 0.55143,0.40948 1.21971,0.63116 1.90652,0.63244 h 0.0459 l 3.08433,9.80297 c -1.41993,1.05967 -1.71197,3.06981 -0.6523,4.48975 1.05968,1.41992 3.06981,1.712 4.48976,0.65233 1.41994,-1.05971 1.71201,-3.06985 0.65229,-4.48979 -0.60715,-0.81357 -1.56352,-1.29175 -2.57865,-1.28932 h -0.18797 l -3.05683,-9.71589 c 1.46906,-0.99048 1.85705,-2.9843 0.86662,-4.45336 -0.99047,-1.46907 -2.98433,-1.85707 -4.45339,-0.86663 -1.22594,0.82653 -1.7282,2.38386 -1.21619,3.77095 l -4.78462,3.58846 c -0.53823,-0.37369 -1.17796,-0.57361 -1.83318,-0.57287 v 0 l -2.37397,-6.9386 c 1.48322,-0.96912 1.89996,-2.95717 0.93084,-4.44039 -0.96912,-1.48323 -2.95715,-1.89997 -4.44039,-0.93085 -1.48323,0.96915 -1.89995,2.95715 -0.93085,4.44038 0.59327,0.90797 1.60511,1.45469 2.68971,1.45331 z"
           id="path1061" />
        <path
           style="fill:#3aafa9;fill-opacity:1;stroke-width:0.458296"
           d="m 161.39741,152.10196 h -28.87269 v 2.74978 h 31.62247 v -32.08076 h -2.74978 z"
           id="path1063" />
      </g>
      <g
         style="fill:#3aafa9;fill-opacity:1"
         transform="matrix(-1,0,0,1,265.20622,26.544427)"
         id="g1082">
        <path
           id="path1078"
           d="m 137.1077,129.18714 2.36481,6.94319 c -1.4814,0.97196 -1.89438,2.96077 -0.92242,4.44214 0.9719,1.4814 2.96073,1.89436 4.44213,0.92245 0.90418,-0.59326 1.44863,-1.60211 1.44821,-2.68356 -0.002,-0.41284 -0.0811,-0.82173 -0.23373,-1.20531 l 4.74337,-3.5518 c 0.55143,0.40948 1.21971,0.63116 1.90652,0.63244 h 0.0459 l 3.08433,9.80297 c -1.41993,1.05967 -1.71197,3.06981 -0.6523,4.48975 1.05968,1.41992 3.06981,1.712 4.48976,0.65233 1.41994,-1.05971 1.71201,-3.06985 0.65229,-4.48979 -0.60715,-0.81357 -1.56352,-1.29175 -2.57865,-1.28932 h -0.18797 l -3.05683,-9.71589 c 1.46906,-0.99048 1.85705,-2.9843 0.86662,-4.45336 -0.99047,-1.46907 -2.98433,-1.85707 -4.45339,-0.86663 -1.22594,0.82653 -1.7282,2.38386 -1.21619,3.77095 l -4.78462,3.58846 c -0.53823,-0.37369 -1.17796,-0.57361 -1.83318,-0.57287 v 0 l -2.37397,-6.9386 c 1.48322,-0.96912 1.89996,-2.95717 0.93084,-4.44039 -0.96912,-1.48323 -2.95715,-1.89997 -4.44039,-0.93085 -1.48323,0.96915 -1.89995,2.95715 -0.93085,4.44038 0.59327,0.90797 1.60511,1.45469 2.68971,1.45331 z"
           style="fill:#3aafa9;fill-opacity:1;stroke-width:0.458296" />
        <path
           id="path1080"
           d="m 161.39741,152.10196 h -28.87269 v 2.74978 h 31.62247 v -32.08076 h -2.74978 z"
           style="fill:#3aafa9;fill-opacity:1;stroke-width:0.458296" />
      </g>
    </g>
  </g>
</svg>
