<?xml version="1.0" encoding="UTF-8" standalone="no"?>
<svg
   xmlns:dc="http://purl.org/dc/elements/1.1/"
   xmlns:cc="http://creativecommons.org/ns#"
   xmlns:rdf="http://www.w3.org/1999/02/22-rdf-syntax-ns#"
   xmlns:svg="http://www.w3.org/2000/svg"
   xmlns="http://www.w3.org/2000/svg"
   width="500"
   height="125"
   viewBox="0 0 132.28999 33.072501"
   version="1.1"
   id="svg8">
  <defs
     id="defs2">
    <clipPath
       id="clipEmfPath1"
       clipPathUnits="userSpaceOnUse">
      <path
         id="path1613"
         d="M 0,0 H 40.592126 V 18.942992 H 0 Z" />
    </clipPath>
    <pattern
       y="0"
       x="0"
       height="6"
       width="6"
       patternUnits="userSpaceOnUse"
       id="EMFhbasepattern" />
    <style
       id="style938">
.MsftOfcThm_Accent2_Fill {
 fill:#ED7D31; 
}
</style>
    <style
       id="style1594">
.MsftOfcThm_Accent2_Fill {
 fill:#ED7D31; 
}
</style>
  </defs>
  <metadata
     id="metadata5">
    <rdf:RDF>
      <cc:Work
         rdf:about="">
        <dc:format>image/svg+xml</dc:format>
        <dc:type
           rdf:resource="http://purl.org/dc/dcmitype/StillImage" />
        <dc:title></dc:title>
      </cc:Work>
    </rdf:RDF>
  </metadata>
  <g
     transform="translate(6.231349)"
     id="g4163">
    <g
       id="g936"
       style="fill:#3aafa9;fill-opacity:1"
       transform="translate(-67.953873,-71.955337)">
      <path
         style="fill:#3aafa9;fill-opacity:1;stroke-width:0.264583"
         d="m 171.6139,89.225043 h 5.29166 c 0.4498,0 0.79375,0.343959 0.79375,0.79375 0,0.449792 -0.34395,0.79375 -0.79375,0.79375 h -5.29166 c -0.44979,0 -0.79375,-0.343958 -0.79375,-0.79375 0,-0.449791 0.34396,-0.79375 0.79375,-0.79375 z"
         id="path913" />
      <path
         style="fill:#3aafa9;fill-opacity:1;stroke-width:0.264583"
         d="m 171.6139,91.870877 h 5.29166 c 0.4498,0 0.79375,0.343958 0.79375,0.79375 0,0.449791 -0.34395,0.79375 -0.79375,0.79375 h -5.29166 c -0.44979,0 -0.79375,-0.343959 -0.79375,-0.79375 0,-0.449792 0.34396,-0.79375 0.79375,-0.79375 z"
         id="path915" />
      <path
         style="fill:#3aafa9;fill-opacity:1;stroke-width:0.264583"
         d="m 172.53994,94.51671 c 0.0794,0.899584 0.82021,1.5875 1.71979,1.5875 0.89958,0 1.64042,-0.687916 1.71979,-1.5875 z"
         id="path917" />
      <path
         style="fill:#3aafa9;fill-opacity:1;stroke-width:0.264583"
         d="m 174.25973,73.87921 c 0,0 0,0 0,0 0,0 0,0 0,0 -3.75708,0.02646 -6.79979,3.042708 -6.87916,6.799792 v 0.238125 c 0.0264,0.820208 0.1852,1.613958 0.47625,2.38125 0.29104,0.714375 0.68791,1.375833 1.19062,1.957916 0.635,0.687917 1.32292,2.037292 1.61396,2.619375 0.0794,0.185209 0.26458,0.291042 0.47625,0.291042 h 6.24416 c 0.21167,0 0.39688,-0.105833 0.47625,-0.291042 0.29105,-0.582083 0.97896,-1.931458 1.61396,-2.619375 0.50271,-0.582083 0.92604,-1.243541 1.19063,-1.957916 0.29104,-0.767292 0.44979,-1.561042 0.47625,-2.38125 v -0.238125 c -0.0794,-3.757084 -3.12209,-6.773334 -6.87917,-6.799792 z m 5.29167,7.011458 c -0.0265,0.635 -0.15875,1.27 -0.37042,1.852084 -0.21167,0.529166 -0.50271,1.031875 -0.89958,1.455208 -0.60854,0.740833 -1.13771,1.534583 -1.53459,2.38125 h -2.48708 -2.46062 c -0.42334,-0.846667 -0.9525,-1.640417 -1.53459,-2.38125 -0.37041,-0.423333 -0.68791,-0.926042 -0.89958,-1.455208 -0.23812,-0.582084 -0.34396,-1.217084 -0.37042,-1.852084 v -0.211666 c 0.0529,-2.883959 2.40771,-5.212292 5.29167,-5.23875 v 0 0 c 0,0 0,0 0,0 0,0 0,0 0,0 v 0 0 c 2.88396,0.02646 5.23875,2.328333 5.29167,5.23875 v 0.211666 z"
         id="path919" />
    </g>
    <path
       id="path940"
       fill="#ed7d31"
       d="m 26.35115,20.162309 -3.30729,-3.30729 c -0.44979,-0.44979 -1.05833,-0.60854 -1.64042,-0.50271 l -1.16416,-1.16416 c 1.03187,-1.32292 1.64041,-3.016251 1.64041,-4.815417 0,-4.3656257 -3.57187,-7.9375007 -7.9375,-7.9375007 -4.36562,0 -7.9375,3.571875 -7.9375,7.9375007 0,4.365627 3.57188,7.937497 7.9375,7.937497 1.79917,0 3.46605,-0.60854 4.81542,-1.64042 l 1.16417,1.16417 c -0.10584,0.58208 0.0529,1.19063 0.50271,1.64042 l 3.30729,3.30729 c 0.37041,0.37042 0.84666,0.55562 1.32291,0.55562 0.47625,0 0.9525,-0.1852 1.32292,-0.55562 0.687921,-0.74083 0.687921,-1.905 -0.0265,-2.61938 z m -12.43541,-3.46604 c -3.4925,0 -6.35,-2.8575 -6.35,-6.349996 0,-3.4924997 2.8575,-6.3499997 6.35,-6.3499997 3.4925,0 6.35,2.8575 6.35,6.3499997 0,3.492496 -2.8575,6.349996 -6.35,6.349996 z"
       style="fill:#3aafa9;fill-opacity:1;stroke-width:0.264583" />
    <g
       id="g1648"
       transform="matrix(1.0472196,0,0,1.0472196,-131.30103,-8.6071061)">
      <path
         id="path1596"
         fill="#ed7d31"
         d="m 188.57937,17.013372 c -1.11123,0 -1.98435,-0.899572 -1.98435,-1.98435 0,-1.084778 0.89958,-1.98435 1.98435,-1.98435 1.11124,0 1.98435,0.899572 1.98435,1.98435 0,1.084778 -0.89957,1.98435 -1.98435,1.98435 z m 4.47141,-3.227876 c -0.10584,-0.370412 -0.23813,-0.714366 -0.42333,-1.031862 l 0.42333,-1.243526 -0.95249,-0.952488 -1.24353,0.423328 c -0.31749,-0.185206 -0.66145,-0.317496 -1.03186,-0.423328 l -0.58208,-1.1641521 h -1.3229 l -0.58207,1.1641521 c -0.37041,0.105832 -0.71437,0.238122 -1.03186,0.423328 l -1.24353,-0.423328 -0.95249,0.952488 0.42333,1.243526 c -0.18521,0.317496 -0.3175,0.66145 -0.42333,1.031862 l -1.16415,0.582076 v 1.3229 l 1.16415,0.582076 c 0.10583,0.370412 0.23812,0.714366 0.42333,1.031862 l -0.42333,1.243526 0.92603,0.92603 1.24353,-0.423328 c 0.31749,0.185206 0.66145,0.317496 1.03186,0.423328 l 0.58208,1.164152 h 1.3229 l 0.58207,-1.164152 c 0.37041,-0.105832 0.71437,-0.238122 1.03186,-0.423328 l 1.24353,0.423328 0.95249,-0.92603 -0.42333,-1.243526 c 0.18521,-0.317496 0.34395,-0.687908 0.44979,-1.031862 l 1.16415,-0.582076 v -1.3229 z"
         style="fill:#3aafa9;fill-opacity:1;stroke-width:0.26458" />
      <path
         id="path1598"
         fill="#ed7d31"
         d="m 182.59987,26.644084 c -1.11124,0 -1.98435,-0.899572 -1.98435,-1.98435 0,-1.111236 0.89957,-1.98435 1.98435,-1.98435 1.11123,0 1.98435,0.899572 1.98435,1.98435 0,1.084778 -0.87312,1.98435 -1.98435,1.98435 z m 4.04807,-4.259738 0.42333,-1.243526 -0.95249,-0.952488 -1.24353,0.423328 c -0.31749,-0.185206 -0.6879,-0.317496 -1.03186,-0.423328 l -0.58207,-1.164152 h -1.3229 l -0.58208,1.164152 c -0.37041,0.105832 -0.71437,0.238122 -1.03186,0.423328 l -1.24353,-0.423328 -0.92603,0.92603 0.39687,1.243526 c -0.1852,0.317496 -0.31749,0.687908 -0.42333,1.031862 l -1.16415,0.582076 v 1.3229 l 1.16415,0.582076 c 0.10584,0.370412 0.23813,0.714366 0.42333,1.031862 l -0.39687,1.243526 0.92603,0.92603 1.24353,-0.39687 c 0.31749,0.185206 0.66145,0.317496 1.03186,0.423328 l 0.58208,1.164152 h 1.3229 l 0.58207,-1.164152 c 0.37041,-0.105832 0.71437,-0.238122 1.03186,-0.423328 l 1.24353,0.423328 0.92603,-0.952488 -0.39687,-1.217068 c 0.18521,-0.317496 0.3175,-0.66145 0.42333,-1.031862 l 1.16415,-0.582076 v -1.3229 l -1.16415,-0.582076 c -0.10583,-0.370412 -0.23812,-0.714366 -0.42333,-1.031862 z"
         style="fill:#3aafa9;fill-opacity:1;stroke-width:0.26458" />
      <path
         style="fill:#3aafa9;fill-opacity:1;stroke-width:0.372648"
         d="m 197.73004,25.829531 c -1.51178,-0.40508 -2.37171,-1.947194 -1.97627,-3.422989 0.39544,-1.475795 1.9472,-2.3717 3.42299,-1.976263 1.5118,0.405085 2.3717,1.947194 1.97627,3.422989 -0.39544,1.475795 -1.9472,2.371702 -3.42299,1.976263 z m 7.25983,-2.761412 c -0.009,-0.542512 -0.0635,-1.058671 -0.19977,-1.558124 l 1.02923,-1.537447 -0.9486,-1.643033 -1.8461,0.122608 c -0.36441,-0.367699 -0.78414,-0.673061 -1.24948,-0.952066 l -0.36753,-1.795969 -1.79975,-0.482242 -1.21626,1.371596 c -0.5425,0.009 -1.05867,0.06354 -1.55811,0.199773 l -1.53746,-1.029228 -1.64303,0.948605 0.12261,1.846082 c -0.3677,0.364427 -0.67307,0.784137 -0.95206,1.24949 l -1.79597,0.367518 -0.48224,1.799751 1.37159,1.216262 c 0.009,0.542508 0.0635,1.058668 0.19977,1.558121 l -1.02922,1.537451 0.92224,1.597393 1.8461,-0.12261 c 0.36441,0.3677 0.78414,0.673062 1.24948,0.952068 l 0.36753,1.795968 1.79975,0.482242 1.21626,-1.371595 c 0.5425,-0.009 1.05867,-0.06354 1.55811,-0.199774 l 1.53746,1.029229 1.63338,-0.912612 -0.1226,-1.846082 c 0.3677,-0.364427 0.71869,-0.810489 0.98806,-1.239843 l 1.79597,-0.367518 0.48224,-1.79975 z"
         fill="#ed7d31"
         id="path1634" />
      <path
         style="fill:#3aafa9;fill-opacity:1;stroke-width:0.372648"
         d="m 172.19611,19.187299 c -1.51179,-0.405085 -2.3717,-1.947193 -1.97626,-3.422988 0.40508,-1.511791 1.94719,-2.371703 3.42299,-1.976264 1.51178,0.40508 2.3717,1.947193 1.97626,3.42299 -0.39543,1.475795 -1.91121,2.381342 -3.42299,1.976262 z m 7.06005,-4.319541 1.02923,-1.537446 -0.9486,-1.643035 -1.84609,0.122612 c -0.36442,-0.367702 -0.82013,-0.682704 -1.24949,-0.95207 l -0.36751,-1.795963 -1.79975,-0.482242 -1.21627,1.371593 c -0.54251,0.009 -1.05868,0.06354 -1.55812,0.199771 l -1.53746,-1.029229 -1.59738,0.922258 0.0866,1.836438 c -0.3677,0.364427 -0.6827,0.820134 -0.95207,1.249487 l -1.79597,0.367518 -0.48224,1.79975 1.3716,1.216263 c 0.009,0.542513 0.0636,1.058672 0.19977,1.558125 l -0.99323,1.547093 0.92225,1.597393 1.83644,-0.08662 c 0.36442,0.367702 0.78414,0.673062 1.24949,0.95207 l 0.36753,1.795968 1.79975,0.482242 1.21625,-1.371598 c 0.54251,-0.009 1.05868,-0.06354 1.55812,-0.199771 l 1.53746,1.029229 1.60703,-0.958253 -0.0963,-1.800442 c 0.36771,-0.364426 0.67307,-0.784135 0.95207,-1.249488 l 1.79597,-0.367518 0.48224,-1.79975 -1.3716,-1.216263 c -0.009,-0.542507 -0.0635,-1.058668 -0.19977,-1.558125 z"
         fill="#ed7d31"
         id="path1636" />
    </g>
    <text
       xml:space="preserve"
       style="font-style:normal;font-variant:normal;font-weight:bold;font-stretch:normal;font-size:6.928px;line-height:1.25;font-family:Montserrat;-inkscape-font-specification:'Montserrat, Bold';font-variant-ligatures:normal;font-variant-caps:normal;font-variant-numeric:normal;font-variant-east-asian:normal;fill:#808080;stroke-width:0.1732"
       x="-1.0462513"
       y="31.418661"
       id="text1652"><tspan
         id="tspan1650"
         x="-1.0462513"
         y="31.418661"
         style="font-style:normal;font-variant:normal;font-weight:bold;font-stretch:normal;font-size:6.928px;font-family:Montserrat;-inkscape-font-specification:'Montserrat, Bold';font-variant-ligatures:normal;font-variant-caps:normal;font-variant-numeric:normal;font-variant-east-asian:normal;fill:#808080;stroke-width:0.1732">analytical</tspan></text>
    <text
       id="text1656"
       y="31.418661"
       x="46.651505"
       style="font-style:normal;font-variant:normal;font-weight:bold;font-stretch:normal;font-size:6.928px;line-height:1.25;font-family:Montserrat;-inkscape-font-specification:'Montserrat, Bold';font-variant-ligatures:normal;font-variant-caps:normal;font-variant-numeric:normal;font-variant-east-asian:normal;fill:#808080;stroke-width:0.1732"
       xml:space="preserve"><tspan
         style="font-style:normal;font-variant:normal;font-weight:bold;font-stretch:normal;font-size:6.928px;font-family:Montserrat;-inkscape-font-specification:'Montserrat, Bold';font-variant-ligatures:normal;font-variant-caps:normal;font-variant-numeric:normal;font-variant-east-asian:normal;fill:#808080;stroke-width:0.1732"
         y="31.418661"
         x="46.651505"
         id="tspan1654">technical</tspan></text>
    <text
       xml:space="preserve"
       style="font-style:normal;font-variant:normal;font-weight:bold;font-stretch:normal;font-size:6.928px;line-height:1.25;font-family:Montserrat;-inkscape-font-specification:'Montserrat, Bold';font-variant-ligatures:normal;font-variant-caps:normal;font-variant-numeric:normal;font-variant-east-asian:normal;fill:#808080;stroke-width:0.1732"
       x="91.772812"
       y="31.418661"
       id="text1660"><tspan
         id="tspan1658"
         x="91.772812"
         y="31.418661"
         style="font-style:normal;font-variant:normal;font-weight:bold;font-stretch:normal;font-size:6.928px;font-family:Montserrat;-inkscape-font-specification:'Montserrat, Bold';font-variant-ligatures:normal;font-variant-caps:normal;font-variant-numeric:normal;font-variant-east-asian:normal;fill:#808080;stroke-width:0.1732">creative</tspan></text>
  </g>
</svg>
