<?xml version="1.0" encoding="UTF-8" standalone="no"?>
<svg
   xmlns:dc="http://purl.org/dc/elements/1.1/"
   xmlns:cc="http://creativecommons.org/ns#"
   xmlns:rdf="http://www.w3.org/1999/02/22-rdf-syntax-ns#"
   xmlns:svg="http://www.w3.org/2000/svg"
   xmlns="http://www.w3.org/2000/svg"
   id="svg8"
   version="1.1"
   viewBox="0 0 158.75 158.75001"
   height="600"
   width="600">
  <defs
     id="defs2" />
  <metadata
     id="metadata5">
    <rdf:RDF>
      <cc:Work
         rdf:about="">
        <dc:format>image/svg+xml</dc:format>
        <dc:type
           rdf:resource="http://purl.org/dc/dcmitype/StillImage" />
        <dc:title></dc:title>
      </cc:Work>
    </rdf:RDF>
  </metadata>
  <g
     id="g2891">
    <text
       xml:space="preserve"
       style="font-style:normal;font-variant:normal;font-weight:900;font-stretch:normal;font-size:20.8376px;line-height:1.25;font-family:Montserrat;-inkscape-font-specification:'Montserrat, Heavy';font-variant-ligatures:normal;font-variant-caps:normal;font-variant-numeric:normal;font-variant-east-asian:normal;fill:none;stroke:#ffffff;stroke-width:0.570672"
       x="13.055036"
       y="63.973011"
       id="text1905"><tspan
         id="tspan1903"
         x="13.055036"
         y="63.973011"
         style="font-style:normal;font-variant:normal;font-weight:900;font-stretch:normal;font-size:20.8376px;font-family:Montserrat;-inkscape-font-specification:'Montserrat, Heavy';font-variant-ligatures:normal;font-variant-caps:normal;font-variant-numeric:normal;font-variant-east-asian:normal;fill:none;stroke:#ffffff;stroke-width:0.570672">VIEW</tspan></text>
    <text
       id="text1909"
       y="64.269356"
       x="73.562912"
       style="font-style:normal;font-variant:normal;font-weight:normal;font-stretch:normal;font-size:15.9124px;line-height:1.25;font-family:Montserrat;-inkscape-font-specification:'Montserrat, Normal';font-variant-ligatures:normal;font-variant-caps:normal;font-variant-numeric:normal;font-variant-east-asian:normal;fill:#ffffff;stroke:none;stroke-width:0.266967"
       xml:space="preserve"><tspan
         style="font-style:normal;font-variant:normal;font-weight:normal;font-stretch:normal;font-size:15.9124px;font-family:Montserrat;-inkscape-font-specification:'Montserrat, Normal';font-variant-ligatures:normal;font-variant-caps:normal;font-variant-numeric:normal;font-variant-east-asian:normal;fill:#ffffff;stroke:none;stroke-width:0.266967"
         y="64.269356"
         x="73.562912"
         id="tspan1907">solutions</tspan></text>
    <path
       style="fill:#424f59;stroke-width:0.431115"
       id="path1943"
       d="M 116.52425,133.52286 H 25.688452 V 74.805089 c 0,-1.595131 1.29334,-2.88847 2.888471,-2.88847 h 86.007327 c 1.07777,0 1.89689,0.862229 1.89689,1.896909 v 59.709332 z"
       class="st1" />
    <path
       style="fill:#ffffff;stroke-width:0.431115"
       id="path1945"
       d="M 29.223584,129.08238 V 76.357097 c 0,-0.517339 0.431128,-0.90533 0.905348,-0.90533 h 81.954828 c 0.51735,0 0.90535,0.431112 0.90535,0.90533 v 52.725283 z"
       class="st2" />
    <path
       style="fill:#ffffff;stroke:#424f59;stroke-width:0.431342;stroke-linecap:square;stroke-linejoin:round;stroke-miterlimit:4;stroke-dasharray:none;stroke-opacity:1"
       id="path1947"
       d="M 122.9478,133.39351 H 77.092782 62.325934 16.427722 l 3.44e-4,3.00949 106.562934,0.008 v -3.01787 z"
       class="st2" />
    <path
       style="fill:#424f59;stroke:#424f59;stroke-width:0.431448;stroke-opacity:1"
       id="path1949"
       d="m 16.427722,136.34338 0.001,0.17358 c 0,0 0.94749,2.35179 2.76098,2.35179 h 92.574568 c 10.06058,0 10.70826,-1.12091 11.22639,-2.45736 v -0.0432 z"
       class="st1" />
    <path
       style="fill:#424f59;stroke-width:0.431115"
       id="path1951"
       d="m 63.540292,135.506 c 0,0.17246 0.129431,0.3449 0.344892,0.3449 h 11.769419 c 0.17245,0 0.3449,-0.12944 0.3449,-0.3449 v -0.3449 c 0,-0.17243 -0.129429,-0.34489 -0.3449,-0.34489 H 63.885184 c -0.172442,0 -0.344892,0.12943 -0.344892,0.34489 z"
       class="st1" />
    <g
       transform="matrix(1.6294085,0,0,1.6294085,-206.62399,-148.52376)"
       id="g1393">
      <rect
         style="fill:#cccccc;stroke:#cccccc;stroke-width:0.0856473"
         id="rect1329"
         fill-rule="evenodd"
         fill="#ffffff"
         ry="0.45662245"
         height="19.108015"
         width="19.108015"
         y="145.1608"
         x="149.56877" />
      <rect
         x="148.24611"
         y="143.80821"
         width="19.108015"
         height="19.108015"
         ry="0.45662245"
         fill="#ffffff"
         fill-rule="evenodd"
         id="rect1331"
         style="stroke:#cccccc;stroke-width:0.0856473" />
    </g>
    <path
       id="path2854"
       style="fill:#ffd42a;fill-opacity:1;stroke:#ffffff;stroke-width:0.148066;stroke-linejoin:round;stroke-opacity:1"
       d="m 50.306383,87.708268 a 13.748899,13.748916 0 0 0 -13.749121,13.748742 13.748899,13.748916 0 0 0 13.749121,13.74913 13.748899,13.748916 0 0 0 13.74874,-13.74913 13.748899,13.748916 0 0 0 -13.74874,-13.748742 z m -0.005,8.446371 a 5.30242,5.3024272 0 0 1 0.005,0 5.30242,5.3024272 0 0 1 5.30237,5.302371 5.30242,5.3024272 0 0 1 -5.30237,5.30241 5.30242,5.3024272 0 0 1 -5.302739,-5.30241 5.30242,5.3024272 0 0 1 5.297628,-5.302371 z" />
    <path
       id="path1290"
       style="fill:#ff637d;fill-opacity:1;stroke:#ffffff;stroke-width:0.185808;stroke-opacity:1"
       d="m 50.306383,87.708268 -0.005,8.446371 a 5.30242,5.3024272 0 0 1 0.005,0 5.30242,5.3024272 0 0 1 5.293869,5.005361 l 8.45113,-0.0146 C 63.882094,93.67549 57.778183,87.70812 50.306383,87.70794 Z" />
    <path
       id="path2873"
       style="fill:#aa87de;fill-opacity:1;stroke:#ffffff;stroke-width:0.174193px;stroke-linecap:butt;stroke-linejoin:miter;stroke-opacity:1"
       d="m 64.051382,101.14573 -8.45113,0.0146 a 5.30242,5.3024272 0 0 1 0.008,0.297 5.30242,5.3024272 0 0 1 -2.091,4.21911 l 4.816859,6.94261 a 13.748899,13.748916 0 0 0 5.720491,-11.1617 13.748899,13.748916 0 0 0 -0.0011,-0.31028 z" />
    <path
       id="path2878"
       style="fill:#5f8dd3;fill-opacity:1;stroke:#ffffff;stroke-width:0.174193px;stroke-linecap:butt;stroke-linejoin:miter;stroke-opacity:1"
       d="m 53.517753,105.67612 a 5.30242,5.3024272 0 0 1 -3.21137,1.0833 5.30242,5.3024272 0 0 1 -2.364221,-0.55628 l -4.10378,7.38658 a 13.748899,13.748916 0 0 0 6.468001,1.61641 13.748899,13.748916 0 0 0 8.028229,-2.5874 z" />
    <path
       id="path2883"
       style="fill:#b0d9d3;fill-opacity:1;stroke:#ffffff;stroke-width:0.174193px;stroke-linecap:butt;stroke-linejoin:miter;stroke-opacity:1"
       d="m 45.749422,104.16827 -6.974239,4.77674 a 13.748899,13.748916 0 0 0 5.063199,4.64471 l 4.10378,-7.38658 a 5.30242,5.3024272 0 0 1 -2.19274,-2.03487 z" />
    <path
       id="path2888"
       style="fill:#bcd35f;fill-opacity:1;stroke:#ffffff;stroke-width:0.174193px;stroke-linecap:butt;stroke-linejoin:miter;stroke-opacity:1"
       d="m 40.788643,91.535069 a 13.748899,13.748916 0 0 0 -4.231359,9.921941 13.748899,13.748916 0 0 0 2.21756,7.48766 v 0 l 6.974218,-4.77675 a 5.30242,5.3024272 0 0 1 -0.745749,-2.71125 5.30242,5.3024272 0 0 1 1.963079,-4.118733 z" />
    <circle
       r="13.748941"
       cy="101.45713"
       cx="50.306168"
       id="path1326"
       style="opacity:0.406452;fill:none;fill-opacity:1;stroke:#ffffff;stroke-width:1.82596;stroke-linejoin:round;stroke-miterlimit:4;stroke-dasharray:none" />
    <g
       id="g1417"
       transform="matrix(1.6294085,0,0,1.6294085,-167.78361,-148.52376)">
      <rect
         x="149.56877"
         y="145.1608"
         width="19.108015"
         height="19.108015"
         ry="0.45662245"
         fill="#ffffff"
         fill-rule="evenodd"
         id="rect1413"
         style="fill:#cccccc;stroke:#cccccc;stroke-width:0.0856473" />
      <rect
         style="stroke:#cccccc;stroke-width:0.0856473"
         id="rect1415"
         fill-rule="evenodd"
         fill="#ffffff"
         ry="0.45662245"
         height="19.108015"
         width="19.108015"
         y="143.80821"
         x="148.24611" />
    </g>
    <path
       d="m 96.621393,89.529297 -3.57247,6.187591 c 0.786302,0.870421 2.87764,4.524272 3.293231,5.739132 l 7.135476,-1.4e-4 C 102.87902,99.267808 98.048765,90.835548 96.621393,89.529159 Z"
       fill="#ffc107"
       fill-rule="evenodd"
       id="path1350"
       style="fill:#ff637d;fill-opacity:1;stroke-width:0.168522" />
    <path
       d="m 96.112454,89.270468 c -2.19261,-0.576011 -11.91254,-0.60911 -13.757011,-0.02611 l 3.57246,6.1874 c 1.1455,-0.24579 5.357791,-0.230319 6.61679,0.01791 l 3.567761,-6.179511 z"
       fill="#689f38"
       fill-rule="evenodd"
       id="path1352"
       style="fill:#ffd42a;fill-opacity:1;stroke-width:0.168522" />
    <path
       d="m 103.50713,102.02513 -7.144767,-1.7e-4 c -0.360838,1.11632 -2.479109,4.75396 -3.323719,5.72145 l 3.56775,6.17929 c 1.59571,-1.61268 6.482966,-10.01112 6.900736,-11.90057 z"
       fill="#03a9f4"
       fill-rule="evenodd"
       id="path1354"
       style="fill:#aa87de;fill-opacity:1;stroke-width:0.168522" />
    <path
       d="m 81.877523,89.554758 c -1.595501,1.612281 -6.482821,10.011471 -6.900579,11.901092 l 7.144589,3e-5 c 0.36059,-1.11604 2.478939,-4.754141 3.323561,-5.721953 l -3.56742,-6.179148 z"
       fill="#f44336"
       fill-rule="evenodd"
       id="path1356"
       style="fill:#bcd35f;fill-opacity:1;stroke-width:0.168522" />
    <path
       d="m 82.142094,102.02513 h -7.13566 c 0.59839,2.18774 5.429219,10.62017 6.856598,11.92655 l 3.572291,-6.18741 c -0.786199,-0.87036 -2.87732,-4.52377 -3.293229,-5.73914 z"
       fill="#9c27b0"
       fill-rule="evenodd"
       id="path1358"
       style="fill:#b0d9d3;fill-opacity:1;stroke:none;stroke-width:0.168522;stroke-opacity:1" />
    <path
       d="m 92.554983,108.04974 c -1.14549,0.24578 -5.357609,0.23039 -6.616449,-0.0179 l -3.56792,6.17966 c 2.192618,0.57599 11.912389,0.60897 13.756828,0.0258 l -3.572459,-6.18773 z"
       fill="#cddc39"
       fill-rule="evenodd"
       id="path1360"
       style="fill:#5f8dd3;fill-opacity:1;stroke-width:0.168522" />
    <circle
       cx="78.023415"
       cy="95.410606"
       r="2.0428069"
       fill="#ffffff"
       fill-rule="evenodd"
       id="circle1392"
       style="stroke-width:0.168522" />
    <circle
       cx="78.023415"
       cy="95.410606"
       r="1.4549228"
       fill="#f44336"
       fill-rule="evenodd"
       id="circle1394"
       style="fill:#bcd35f;fill-opacity:1;stroke-width:0.168522" />
    <circle
       cx="89.203117"
       cy="89.02906"
       r="2.0428069"
       fill="#ffffff"
       fill-rule="evenodd"
       id="circle1396"
       style="stroke-width:0.168522" />
    <circle
       cx="89.203117"
       cy="89.02906"
       r="1.4549228"
       fill="#689f38"
       fill-rule="evenodd"
       id="circle1398"
       style="fill:#ffd42a;fill-opacity:1;stroke-width:0.168522" />
    <circle
       cx="100.15697"
       cy="95.04763"
       r="2.0428069"
       fill="#ffffff"
       fill-rule="evenodd"
       id="circle1400"
       style="stroke-width:0.168522" />
    <circle
       cx="100.15697"
       cy="95.04763"
       r="1.4549228"
       fill="#ffc107"
       fill-rule="evenodd"
       id="circle1402"
       style="fill:#ff637d;fill-opacity:1;stroke-width:0.168522" />
    <circle
       cx="100.51925"
       cy="108.28896"
       r="2.0428069"
       fill="#ffffff"
       fill-rule="evenodd"
       id="circle1404"
       style="stroke-width:0.168522" />
    <circle
       cx="100.51925"
       cy="108.28896"
       r="1.4549228"
       fill="#03a9f4"
       fill-rule="evenodd"
       id="circle1406"
       style="fill:#aa87de;fill-opacity:1;stroke-width:0.168522" />
    <circle
       cx="89.203117"
       cy="114.90845"
       r="2.0428069"
       fill="#ffffff"
       fill-rule="evenodd"
       id="circle1408"
       style="stroke-width:0.168522" />
    <circle
       cx="89.203117"
       cy="114.90845"
       r="1.4549228"
       fill="#cddc39"
       fill-rule="evenodd"
       id="circle1410"
       style="fill:#5f8dd3;fill-opacity:1;stroke-width:0.168522" />
    <circle
       cx="78.008308"
       cy="108.28896"
       r="2.0428069"
       fill="#ffffff"
       fill-rule="evenodd"
       id="circle1412"
       style="stroke-width:0.168522" />
    <circle
       cx="78.008308"
       cy="108.28896"
       r="1.4549228"
       fill="#9c27b0"
       fill-rule="evenodd"
       id="circle1414"
       style="fill:#b0d9d3;fill-opacity:1;stroke:none;stroke-width:0.168522;stroke-opacity:1" />
    <ellipse
       ry="7.1165385"
       rx="7.1981926"
       style="opacity:0.203226;fill:none;fill-opacity:1;stroke:#ffffff;stroke-width:6.98278;stroke-linejoin:round;stroke-miterlimit:4;stroke-dasharray:none"
       id="circle1465"
       cx="89.219597"
       cy="101.86504" />
    <path
       d="m 106.60885,20.61328 a 11.926904,14.06506 0 0 0 -10.844807,8.264094 4.4950048,4.467849 0 0 0 -3.67006,-1.888773 4.4950048,4.467849 0 0 0 -4.49534,4.467948 4.4950048,4.467849 0 0 0 0.0021,0.11472 3.7779043,4.5328738 0 0 0 -2.551779,-1.190109 3.7779043,4.5328738 0 0 0 -3.730522,3.81527 h 54.389838 a 7.0826431,8.6862608 0 0 0 -5.12579,-2.691821 7.0826431,8.6862608 0 0 0 -3.35121,1.034041 7.0826431,8.6862608 0 0 0 -6.40375,-4.97644 7.0826431,8.6862608 0 0 0 -3.42511,1.083654 11.926904,14.06506 0 0 0 -10.77402,-8.032584 11.926904,14.06506 0 0 0 -0.0196,0 z"
       style="opacity:0.916129;fill:#ffffff;fill-opacity:1;stroke:none;stroke-width:4.62312;stroke-linejoin:round;stroke-miterlimit:4;stroke-dasharray:none"
       id="path1998" />
    <path
       id="path2047"
       style="opacity:0.732258;fill:#ffffff;fill-opacity:1;stroke:none;stroke-width:1.75766;stroke-linejoin:round;stroke-miterlimit:4;stroke-dasharray:none"
       d="m 13.085952,69.964428 a 4.534478,5.3473812 0 0 0 -4.12307,3.141919 1.7089514,1.6986271 0 0 0 -1.39532,-0.71809 1.7089514,1.6986271 0 0 0 -1.70908,1.698662 1.7089514,1.6986271 0 0 0 5.29e-4,0.0436 1.4363177,1.7233488 0 0 0 -0.97016,-0.452469 1.4363177,1.7233488 0 0 0 -1.4183,1.450531 h 20.678471 a 2.6927432,3.3024211 0 0 0 -1.94877,-1.023401 2.6927432,3.3024211 0 0 0 -1.2741,0.393129 2.6927432,3.3024211 0 0 0 -2.43463,-1.891988 2.6927432,3.3024211 0 0 0 -1.30219,0.411999 4.534478,5.3473812 0 0 0 -4.09617,-3.053901 4.534478,5.3473812 0 0 0 -0.007,0 z" />
    <path
       id="path2053"
       style="opacity:0.841935;fill:#ffffff;fill-opacity:1;stroke:none;stroke-width:2.775;stroke-linejoin:round;stroke-miterlimit:4;stroke-dasharray:none"
       d="m 69.031372,6.689192 a 4.8380546,4.8315998 0 0 0 -4.70672,3.712605 2.9795384,3.0140808 0 0 0 -1.539378,-0.433607 2.9795384,3.0140808 0 0 0 -2.979751,3.013836 2.9795384,3.0140808 0 0 0 0.14962,0.942512 h 21.059201 a 2.2896232,2.1609597 0 0 0 0.003,-0.104182 2.2896232,2.1609597 0 0 0 -2.289421,-2.160901 2.2896232,2.1609597 0 0 0 -1.79805,0.822754 1.9112828,1.9087328 0 0 0 -1.90385,-1.742547 1.9112828,1.9087328 0 0 0 -1.171331,0.400502 4.8380546,4.8315998 0 0 0 -4.822909,-4.450972 z" />
    <path
       d="m 142.19153,75.873137 a 8.1571367,8.1462539 0 0 1 7.9357,6.2596 5.0236106,5.0818504 0 0 1 2.59545,-0.731088 5.0236106,5.0818504 0 0 1 5.02397,5.08145 5.0236106,5.0818504 0 0 1 -0.25226,1.589101 H 121.9878 a 3.8603884,3.6434571 0 0 1 -0.005,-0.175652 3.8603884,3.6434571 0 0 1 3.86004,-3.64335 3.8603884,3.6434571 0 0 1 3.03158,1.387179 3.2224925,3.2181933 0 0 1 3.20996,-2.938 3.2224925,3.2181933 0 0 1 1.97489,0.67527 8.1571367,8.1462539 0 0 1 8.13162,-7.50451 z"
       style="fill:#ffffff;fill-opacity:1;stroke:none;stroke-width:4.67876;stroke-linejoin:round;stroke-miterlimit:4;stroke-dasharray:none"
       id="path1343" />
    <path
       d="m 32.751543,17.929393 a 16.648814,16.626602 0 0 0 -16.196871,12.775896 10.25325,10.372118 0 0 0 -5.29734,-1.49214 10.25325,10.372118 0 0 0 -10.25398,10.37128 10.25325,10.372118 0 0 0 0.51488,3.243389 h 72.46935 a 7.8790993,7.4363397 0 0 0 0.01029,-0.358521 7.8790993,7.4363397 0 0 0 -7.8784,-7.436128 7.8790993,7.4363397 0 0 0 -6.187488,2.83128 6.5771463,6.5683714 0 0 0 -6.55157,-5.99649 6.5771463,6.5683714 0 0 0 -4.030771,1.378209 16.648814,16.626602 0 0 0 -16.596731,-15.316775 z"
       style="fill:#ffffff;fill-opacity:1;stroke:none;stroke-width:9.54942;stroke-linejoin:round;stroke-miterlimit:4;stroke-dasharray:none"
       id="path1345" />
    <rect
       style="fill:#3aafa9;fill-opacity:1;stroke-width:0.431115"
       id="rect1353"
       height="4.1386981"
       width="83.765518"
       class="st1"
       y="78.302025"
       x="29.223585" />
    <rect
       style="fill:#ffffff;stroke-width:0.431115"
       id="rect1355"
       height="0.25866863"
       width="4.3542547"
       class="st2"
       y="79.994713"
       x="104.00363" />
    <circle
       style="fill:#ffffff;fill-opacity:1;stroke-width:0.431115"
       id="circle1357"
       r="0.73289448"
       cy="80.210274"
       cx="102.19293"
       class="st10" />
    <rect
       style="clip-rule:evenodd;fill:#ffffff;fill-opacity:1;fill-rule:evenodd;stroke-width:0.431115"
       id="rect1359"
       height="0.9484517"
       width="6.6391611"
       class="st22"
       y="80.253403"
       x="37.094707" />
    <g
       transform="matrix(0.43111437,0,0,0.43111437,-34.168505,-18.29937)"
       id="g1363"
       style="fill:#ffffff">
      <path
         id="path1361"
         d="m 159.9,227.5 v 0 c -0.5,-1 -1.5,-1.8 -2.7,-1.8 -1.5,0 -2.8,1.2 -2.9,2.7 -1,0.1 -1.9,0.9 -1.9,2 0,1.1 0.9,2 2,2 h 1.6 c 0.1,0 0.8,0 0.8,0 v -2.3 h -1 l 1.6,-1.9 1.6,1.9 h -1 v 2.3 h 2 c 1.3,0 2.3,-1 2.3,-2.3 v -0.3 c -0.1,-1.3 -1.2,-2.3 -2.4,-2.3 z"
         class="st4"
         style="fill:#ffffff" />
    </g>
    <g
       id="g1420"
       transform="matrix(1.6294085,0,0,1.6294085,-344.78361,-142.71848)"
       style="fill:#ffffff">
      <rect
         x="242.67412"
         y="136.68346"
         class="st2"
         width="1.2435416"
         height="0.15875001"
         id="rect1365"
         style="stroke-width:0.264583;fill:#ffffff" />
      <rect
         x="244.0235"
         y="136.68346"
         class="st2"
         width="2.6722918"
         height="0.15875001"
         id="rect1367"
         style="stroke-width:0.264583;fill:#ffffff" />
      <rect
         x="249.81787"
         y="136.68346"
         class="st2"
         width="2.6722918"
         height="0.15875001"
         id="rect1369"
         style="stroke-width:0.264583;fill:#ffffff" />
      <rect
         x="255.00371"
         y="136.68346"
         class="st2"
         width="2.6722918"
         height="0.15875001"
         id="rect1371"
         style="stroke-width:0.264583;fill:#ffffff" />
    </g>
    <g
       id="g1444"
       transform="translate(-176.49909,-59.809153)" />
    <g
       id="g1457"
       transform="translate(-176.49909,-59.279986)" />
    <g
       transform="translate(-176.49909,-58.75082)"
       id="g1469" />
    <g
       id="g1481"
       transform="translate(-176.49909,-58.221653)" />
    <g
       transform="translate(-176.49909,-57.692486)"
       id="g1493" />
    <g
       id="g1505"
       transform="translate(-176.49909,-57.16332)" />
    <g
       class="st13"
       id="g2752"
       transform="matrix(0.43111437,0,0,0.43111437,-28.028407,-17.367155)"
       style="opacity:0.3">
      <g
         class="st27"
         id="g2706">
        <path
           class="st20"
           d="m 350.2,320.3 c 0,0.3 -0.2,0.5 -0.5,0.5 h -2.9 c -0.3,0 -0.5,-0.2 -0.5,-0.5 v -3.1 c 0,-0.3 0.2,-0.5 0.5,-0.5 h 2.9 c 0.3,0 0.5,0.2 0.5,0.5 z"
           id="path2704" />
      </g>
      <g
         class="st27"
         id="g2710">
        <path
           class="st16"
           d="m 360.8,320.3 c 0,0.3 -0.2,0.5 -0.5,0.5 h -2.9 c -0.3,0 -0.5,-0.2 -0.5,-0.5 v -3.1 c 0,-0.3 0.2,-0.5 0.5,-0.5 h 2.9 c 0.3,0 0.5,0.2 0.5,0.5 z"
           id="path2708" />
      </g>
      <g
         class="st27"
         id="g2714">
        <path
           class="st18"
           d="m 371.7,320.3 c 0,0.3 -0.2,0.5 -0.5,0.5 h -2.9 c -0.3,0 -0.5,-0.2 -0.5,-0.5 v -3.1 c 0,-0.3 0.2,-0.5 0.5,-0.5 h 2.9 c 0.3,0 0.5,0.2 0.5,0.5 z"
           id="path2712" />
      </g>
      <g
         class="st27"
         id="g2718">
        <path
           class="st19"
           d="m 350.2,334.6 c 0,0.3 -0.2,0.5 -0.5,0.5 h -2.9 c -0.3,0 -0.5,-0.2 -0.5,-0.5 v -3.1 c 0,-0.3 0.2,-0.5 0.5,-0.5 h 2.9 c 0.3,0 0.5,0.2 0.5,0.5 z"
           id="path2716" />
      </g>
      <g
         class="st27"
         id="g2722">
        <path
           class="st16"
           d="m 360.8,334.6 c 0,0.3 -0.2,0.5 -0.5,0.5 h -2.9 c -0.3,0 -0.5,-0.2 -0.5,-0.5 v -3.1 c 0,-0.3 0.2,-0.5 0.5,-0.5 h 2.9 c 0.3,0 0.5,0.2 0.5,0.5 z"
           id="path2720" />
      </g>
      <g
         class="st27"
         id="g2726">
        <path
           class="st14"
           d="m 371.7,334.6 c 0,0.3 -0.2,0.5 -0.5,0.5 h -2.9 c -0.3,0 -0.5,-0.2 -0.5,-0.5 v -3.1 c 0,-0.3 0.2,-0.5 0.5,-0.5 h 2.9 c 0.3,0 0.5,0.2 0.5,0.5 z"
           id="path2724" />
      </g>
      <g
         class="st27"
         id="g2730">
        <path
           class="st20"
           d="m 350.2,349.7 c 0,0.3 -0.2,0.5 -0.5,0.5 h -2.9 c -0.3,0 -0.5,-0.2 -0.5,-0.5 v -3.1 c 0,-0.3 0.2,-0.5 0.5,-0.5 h 2.9 c 0.3,0 0.5,0.2 0.5,0.5 z"
           id="path2728" />
      </g>
      <g
         class="st27"
         id="g2734">
        <path
           class="st14"
           d="m 360.8,349.7 c 0,0.3 -0.2,0.5 -0.5,0.5 h -2.9 c -0.3,0 -0.5,-0.2 -0.5,-0.5 v -3.1 c 0,-0.3 0.2,-0.5 0.5,-0.5 h 2.9 c 0.3,0 0.5,0.2 0.5,0.5 z"
           id="path2732" />
      </g>
      <g
         class="st27"
         id="g2738">
        <path
           class="st15"
           d="m 371.7,349.7 c 0,0.3 -0.2,0.5 -0.5,0.5 h -2.9 c -0.3,0 -0.5,-0.2 -0.5,-0.5 v -3.1 c 0,-0.3 0.2,-0.5 0.5,-0.5 h 2.9 c 0.3,0 0.5,0.2 0.5,0.5 z"
           id="path2736" />
      </g>
      <g
         class="st27"
         id="g2742">
        <path
           class="st17"
           d="m 350.2,364.1 c 0,0.3 -0.2,0.5 -0.5,0.5 h -2.9 c -0.3,0 -0.5,-0.2 -0.5,-0.5 V 361 c 0,-0.3 0.2,-0.5 0.5,-0.5 h 2.9 c 0.3,0 0.5,0.2 0.5,0.5 z"
           id="path2740" />
      </g>
      <g
         class="st27"
         id="g2746">
        <path
           class="st19"
           d="m 360.8,364.1 c 0,0.3 -0.2,0.5 -0.5,0.5 h -2.9 c -0.3,0 -0.5,-0.2 -0.5,-0.5 V 361 c 0,-0.3 0.2,-0.5 0.5,-0.5 h 2.9 c 0.3,0 0.5,0.2 0.5,0.5 z"
           id="path2744" />
      </g>
      <g
         class="st27"
         id="g2750">
        <path
           class="st20"
           d="m 371.7,364.1 c 0,0.3 -0.2,0.5 -0.5,0.5 h -2.9 c -0.3,0 -0.5,-0.2 -0.5,-0.5 V 361 c 0,-0.3 0.2,-0.5 0.5,-0.5 h 2.9 c 0.3,0 0.5,0.2 0.5,0.5 z"
           id="path2748" />
      </g>
    </g>
    <g
       id="g2758"
       transform="matrix(0.43111437,0,0,0.43111437,-28.011865,-17.367155)"
       style="fill:#424f59;fill-opacity:1">
      <path
         class="st1"
         d="m 380.2,378.2 c 0,2.6 -1.2,4 -3.5,4 h -56.1 c -2.3,0 -3.5,-1.4 -3.5,-4 v -79.8 c 0,-2.6 1.2,-4 3.5,-4 h 56.1 c 2.3,0 3.5,1.4 3.5,4 z"
         id="path2754"
         style="fill:#424f59;fill-opacity:1" />
      <rect
         x="321.10001"
         y="301.42328"
         class="st2"
         width="55.099998"
         height="70.300003"
         id="rect2756"
         style="fill:#424f59;fill-opacity:1" />
    </g>
    <rect
       style="fill:#ffffff;stroke-width:0.431115"
       x="110.41896"
       y="112.58075"
       class="st2"
       width="23.7544"
       height="30.307339"
       id="rect2414" />
    <rect
       id="rect2762"
       height="7.50139"
       width="9.1396246"
       class="st1"
       y="122.7019"
       x="110.31622"
       style="fill:#424f59;stroke-width:0.431115" />
    <rect
       id="rect2764"
       height="3.5782497"
       width="23.754423"
       class="st1"
       y="113.38982"
       x="110.40237"
       style="fill:#3aafa9;fill-opacity:1;stroke-width:0.429945" />
    <g
       id="g2772"
       transform="matrix(0.43111437,0,0,0.43111437,-28.028407,-16.504928)"
       style="fill:#ffffff">
      <rect
         id="rect2766"
         height="0.5"
         width="3.4000001"
         class="st28"
         y="306.20001"
         x="370"
         style="fill:#ffffff" />
      <rect
         id="rect2768"
         height="0.5"
         width="3.4000001"
         class="st28"
         y="304.70001"
         x="370"
         style="fill:#ffffff" />
      <rect
         id="rect2770"
         height="0.5"
         width="3.4000001"
         class="st28"
         y="303.20001"
         x="370"
         style="fill:#ffffff" />
    </g>
    <rect
       id="rect2778"
       height="0.21555719"
       width="1.6813461"
       class="st5"
       y="123.47792"
       x="114.11004"
       style="opacity:0.6;fill:#eceddf;stroke-width:0.431115" />
    <rect
       id="rect2780"
       height="0.21555719"
       width="0.43111438"
       class="st5"
       y="123.47792"
       x="116.48116"
       style="opacity:0.6;fill:#eceddf;stroke-width:0.431115" />
    <rect
       id="rect2782"
       height="0.21555719"
       width="0.43111438"
       class="st5"
       y="123.47792"
       x="117.12781"
       style="opacity:0.6;fill:#eceddf;stroke-width:0.431115" />
    <rect
       id="rect2784"
       height="0.21555719"
       width="1.6813461"
       class="st5"
       y="122.22768"
       x="113.98068"
       style="opacity:0.6;fill:#eceddf;stroke-width:0.431115" />
    <rect
       id="rect2786"
       height="0.21555719"
       width="0.43111438"
       class="st5"
       y="122.22768"
       x="116.39492"
       style="opacity:0.6;fill:#eceddf;stroke-width:0.431115" />
    <rect
       id="rect2788"
       height="0.21555719"
       width="0.43111438"
       class="st5"
       y="122.22768"
       x="117.04162"
       style="opacity:0.6;fill:#eceddf;stroke-width:0.431115" />
    <rect
       id="rect2794"
       height="0.21555719"
       width="1.6813461"
       class="st5"
       y="124.64191"
       x="114.11004"
       style="opacity:0.6;fill:#eceddf;stroke-width:0.431115" />
    <rect
       id="rect2796"
       height="0.21555719"
       width="0.43111438"
       class="st5"
       y="124.64191"
       x="116.48116"
       style="opacity:0.6;fill:#eceddf;stroke-width:0.431115" />
    <rect
       id="rect2798"
       height="0.21555719"
       width="0.43111438"
       class="st5"
       y="124.64191"
       x="117.12781"
       style="opacity:0.6;fill:#eceddf;stroke-width:0.431115" />
    <rect
       id="rect2800"
       height="0.21555719"
       width="1.6813461"
       class="st5"
       y="125.76282"
       x="114.11004"
       style="opacity:0.6;fill:#eceddf;stroke-width:0.431115" />
    <rect
       id="rect2802"
       height="0.21555719"
       width="0.43111438"
       class="st5"
       y="125.76282"
       x="116.48116"
       style="opacity:0.6;fill:#eceddf;stroke-width:0.431115" />
    <rect
       id="rect2804"
       height="0.21555719"
       width="0.43111438"
       class="st5"
       y="125.76282"
       x="117.12781"
       style="opacity:0.6;fill:#eceddf;stroke-width:0.431115" />
    <path
       id="path2806"
       d="m 112.29931,127.70285 h 6.03561 c 0.0432,0 0.0432,-0.0432 0.0432,-0.0432 v -0.47423 c 0,-0.0432 -0.0432,-0.0432 -0.0432,-0.0432 h -6.03561 c -0.0432,0 -0.0432,0.0432 -0.0432,0.0432 v 0.47423 c 0,0 0,0.0432 0.0432,0.0432 z"
       class="st4"
       style="fill:#eceddf;stroke-width:0.431115" />
    <path
       id="path2808"
       d="m 112.25619,127.70285 h 1.98313 c 0,0 0.0432,0 0.0432,-0.0432 v -0.51733 c 0,0 0,-0.0431 -0.0432,-0.0431 h -1.98313 c 0,0 -0.0432,0 -0.0432,0.0431 l 0.0432,0.56045 c 0,-0.0432 0,0 0,0 z"
       class="st7"
       style="fill:#029736;stroke-width:0.431115" />
    <rect
       id="rect2904"
       height="0.7760058"
       width="3.448915"
       class="st22"
       y="114.98496"
       x="116.22247"
       style="clip-rule:evenodd;fill:#ffffff;fill-rule:evenodd;stroke-width:0.431115" />
    <g
       id="g2908"
       transform="matrix(0.43111437,0,0,0.43111437,-28.028407,-16.504928)"
       style="fill:#ffffff">
      <path
         id="path2906"
         d="m 330,304.1 v 0 c -0.4,-0.9 -1.3,-1.5 -2.3,-1.5 -1.3,0 -2.3,1 -2.4,2.2 -0.9,0.1 -1.5,0.8 -1.5,1.6 0,0.9 0.7,1.6 1.6,1.6 h 1.3 c 0.1,0 0.6,0 0.6,0 v -1.9 h -0.9 l 1.3,-1.6 1.3,1.6 h -0.9 v 1.9 h 1.7 c 1,0 1.9,-0.8 1.9,-1.9 V 306 c 0.2,-1.1 -0.6,-1.9 -1.7,-1.9 z"
         class="st4"
         style="fill:#ffffff" />
    </g>
    <path
       class="st1"
       d="m 119.88694,150.59503 c 0,0.94844 -0.43111,1.46578 -1.25023,1.46578 h -15.34769 c -0.81912,0 -1.25023,-0.51734 -1.25023,-1.46578 v -28.79845 c 0,-0.94844 0.43111,-1.46579 1.25023,-1.46579 h 15.34769 c 0.81912,0 1.25023,0.51735 1.25023,1.46579 z"
       id="path2913"
       style="fill:#424f59;stroke-width:0.431115" />
    <rect
       id="rect2915"
       height="25.349524"
       width="15.00278"
       class="st2"
       y="122.83126"
       x="103.46148"
       style="fill:#ffffff;stroke-width:0.431115" />
    <rect
       id="rect2919"
       height="3.4920261"
       width="15.00278"
       class="st1"
       y="123.60723"
       x="103.46148"
       style="fill:#3aafa9;fill-opacity:1;stroke-width:0.430498" />
    <g
       id="g2927"
       transform="matrix(0.43111437,0,0,0.43111437,-28.028407,-16.504928)"
       style="fill:#ffffff">
      <rect
         id="rect2921"
         height="0.5"
         width="3.4000001"
         class="st28"
         y="330.10001"
         x="333.89999"
         style="fill:#ffffff" />
      <rect
         id="rect2923"
         height="0.5"
         width="3.4000001"
         class="st28"
         y="328.60001"
         x="333.89999"
         style="fill:#ffffff" />
      <rect
         id="rect2925"
         height="0.5"
         width="3.4000001"
         class="st28"
         y="327.10001"
         x="333.89999"
         style="fill:#ffffff" />
    </g>
    <rect
       id="rect2997"
       height="0.68978298"
       width="3.1040232"
       class="st22"
       y="125.24545"
       x="108.54862"
       style="clip-rule:evenodd;fill:#ffffff;fill-rule:evenodd;stroke-width:0.431115" />
    <g
       id="g3001"
       transform="matrix(0.43111437,0,0,0.43111437,-28.028407,-16.504928)"
       style="fill:#ffffff">
      <path
         id="path2999"
         d="m 312.7,327.9 v 0 c -0.4,-0.8 -1.1,-1.3 -2.1,-1.3 -1.1,0 -2.1,0.9 -2.2,2 -0.8,0 -1.4,0.7 -1.4,1.5 0,0.8 0.7,1.5 1.5,1.5 h 1.2 c 0.1,0 0.6,0 0.6,0 v -1.7 h -0.8 l 1.2,-1.4 1.2,1.4 h -0.8 v 1.7 h 1.5 c 0.9,0 1.7,-0.8 1.7,-1.7 v -0.2 c 0.1,-1 -0.6,-1.8 -1.6,-1.8 z"
         class="st4"
         style="fill:#ffffff" />
    </g>
    <path
       d="m 110.89487,129.84117 c -2.42088,-0.007 -4.627,2.08215 -4.74049,4.50409 -0.1757,2.24041 1.4099,4.48669 3.60654,5.01396 2.16523,0.58493 4.66165,-0.54719 5.5909,-2.60288 0.99021,-2.03749 0.328,-4.74541 -1.57013,-6.01839 -0.83547,-0.59347 -1.86253,-0.91046 -2.88682,-0.89678 z"
       fill="#ffffff"
       fill-rule="evenodd"
       id="path916"
       style="stroke-width:0.0613048" />
    <rect
       x="53.667938"
       y="122.55902"
       class="st7"
       width="8.6222878"
       height="2.4573517"
       id="rect2350"
       style="fill:#bcd35f;fill-opacity:1;stroke-width:0.431115" />
    <rect
       x="54.918163"
       y="123.63681"
       class="st4"
       width="3.7938068"
       height="0.30178007"
       id="rect2354"
       style="fill:#ffffff;fill-opacity:1;stroke-width:0.431115" />
    <rect
       x="59.832867"
       y="123.63681"
       class="st4"
       width="1.1208973"
       height="0.30178007"
       id="rect2356"
       style="fill:#ffffff;stroke-width:0.431115" />
    <rect
       x="62.72134"
       y="122.55902"
       class="st4"
       width="8.6222878"
       height="2.4573517"
       id="rect2358"
       style="fill:#cccccc;fill-opacity:1;stroke-width:0.431115" />
    <rect
       x="63.971539"
       y="123.63681"
       class="st6"
       width="3.147135"
       height="0.30178007"
       id="rect2360"
       style="fill:#ffffff;stroke-width:0.431115" />
    <rect
       x="67.4636"
       y="123.63681"
       class="st6"
       width="0.64667153"
       height="0.30178007"
       id="rect2362"
       style="fill:#ffffff;stroke-width:0.431115" />
    <rect
       x="68.282722"
       y="123.63681"
       class="st6"
       width="0.9484517"
       height="0.30178007"
       id="rect2364"
       style="fill:#ffffff;stroke-width:0.431115" />
    <rect
       x="71.73159"
       y="122.55902"
       class="st4"
       width="8.6222878"
       height="2.4573517"
       id="rect2366"
       style="fill:#cccccc;fill-opacity:1;stroke-width:0.431115" />
    <rect
       x="72.98188"
       y="123.63681"
       class="st6"
       width="3.7938068"
       height="0.30178007"
       id="rect2368"
       style="fill:#ffffff;stroke-width:0.431115" />
    <rect
       x="77.336105"
       y="123.63681"
       class="st6"
       width="1.1208973"
       height="0.30178007"
       id="rect2370"
       style="fill:#ffffff;stroke-width:0.431115" />
    <rect
       x="80.741936"
       y="122.55902"
       class="st4"
       width="8.6222878"
       height="2.4573517"
       id="rect2376"
       style="fill:#cccccc;fill-opacity:1;stroke-width:0.431115" />
    <rect
       x="82.035278"
       y="123.63681"
       class="st6"
       width="3.7938068"
       height="0.30178007"
       id="rect2378"
       style="fill:#ffffff;stroke-width:0.431115" />
    <rect
       x="86.949982"
       y="123.63681"
       class="st4"
       width="1.1208973"
       height="0.30178007"
       id="rect2380"
       style="fill:#ffffff;stroke-width:0.431115" />
    <rect
       style="fill:#cccccc;fill-opacity:1;fill-rule:evenodd;stroke-width:0.10412"
       id="rect1238"
       ry="0.48893028"
       height="8.8931847"
       width="2.5259583"
       y="136.59596"
       x="106.52554" />
    <rect
       style="fill:#cccccc;fill-opacity:1;fill-rule:evenodd;stroke-width:0.10412"
       id="rect1240"
       ry="0.68683773"
       height="12.492601"
       width="2.5259583"
       y="132.99556"
       x="110.06665" />
    <rect
       style="fill:#cccccc;fill-opacity:1;fill-rule:evenodd;stroke-width:0.10412"
       id="rect1242"
       ry="0.59975654"
       height="14.728134"
       width="2.5259583"
       y="130.76016"
       x="113.59866" />
    <rect
       x="105.99523"
       y="136.03908"
       width="2.5259588"
       height="8.8931847"
       ry="0.48893031"
       fill="#3f51b5"
       fill-rule="evenodd"
       id="rect1252"
       style="fill:#ffd42a;fill-opacity:1;stroke-width:0.10412" />
    <rect
       x="109.53177"
       y="132.4388"
       width="2.5259588"
       height="12.492603"
       ry="0.68683779"
       fill="#3f51b5"
       fill-rule="evenodd"
       id="rect1254"
       style="fill:#ff637d;fill-opacity:1;stroke-width:0.10412" />
    <rect
       x="113.06839"
       y="130.20328"
       width="2.5259588"
       height="14.728134"
       ry="0.5997566"
       fill="#3f51b5"
       fill-rule="evenodd"
       id="rect1256"
       style="fill:#5f8dd3;fill-opacity:1;stroke-width:0.10412" />
    <rect
       transform="matrix(-0.42069173,0.90720365,0.91318242,0.40755107,0,0)"
       x="63.822052"
       y="163.68437"
       width="0.6766966"
       height="2.5843971"
       ry="0.19182529"
       fill="#ffffff"
       fill-rule="evenodd"
       id="rect1364"
       style="fill:#ffd42a;fill-opacity:1;stroke-width:0.054397" />
    <path
       d="m 122.5037,124.69492 c -0.0494,-0.003 -0.0997,0.0132 -0.1398,0.0475 l -1.95764,1.70873 v 0.87556 c 0.0251,-0.008 0.0493,-0.0205 0.0704,-0.039 l 2.33962,-2.04213 c 0.08,-0.0699 0.0873,-0.18973 0.0163,-0.2688 l -0.19592,-0.21799 c -0.0356,-0.0396 -0.0836,-0.0611 -0.13296,-0.064 z"
       fill="#ffffff"
       fill-rule="evenodd"
       id="path1366"
       style="fill:#ffd42a;fill-opacity:1;stroke-width:0.054397" />
    <circle
       id="circle1368"
       fill="#ffffff"
       r="0.65940106"
       cy="125.05344"
       cx="122.55408"
       style="fill:#ffd42a;fill-opacity:1;fill-rule:evenodd;stroke-width:0.054397" />
    <circle
       id="circle1370"
       fill="#03a9f4"
       r="0.46963698"
       cy="125.05344"
       cx="122.55408"
       style="fill:#ffffff;fill-opacity:1;fill-rule:evenodd;stroke-width:0.054397" />
    <rect
       transform="matrix(0.66839047,0.74381058,-0.75338267,0.65758236,0,0)"
       x="176.64059"
       y="-14.140112"
       width="0.67669886"
       height="5.812849"
       ry="0.19182511"
       fill="#ffffff"
       fill-rule="evenodd"
       id="rect1376"
       style="fill:#ffd42a;fill-opacity:1;stroke-width:0.054397" />
    <circle
       cx="124.81161"
       cy="125.92648"
       r="0.65940106"
       fill="#ffffff"
       fill-rule="evenodd"
       id="circle1374"
       style="fill:#ffd42a;fill-opacity:1;stroke-width:0.054397" />
    <circle
       cx="124.81161"
       cy="125.92648"
       r="0.46963698"
       fill="#03a9f4"
       fill-rule="evenodd"
       id="circle1378"
       style="fill:#ffffff;fill-opacity:1;stroke-width:0.054397" />
    <rect
       transform="matrix(-0.65604875,0.75471852,0.76411707,0.64507759,0,0)"
       x="10.0337"
       y="177.42833"
       width="0.67670071"
       height="2.584414"
       ry="0.19182649"
       fill="#ffffff"
       fill-rule="evenodd"
       id="rect1380"
       style="fill:#ffd42a;fill-opacity:1;stroke-width:0.054397" />
    <circle
       cx="128.8913"
       cy="122.35184"
       r="0.65940106"
       fill="#ffffff"
       fill-rule="evenodd"
       id="circle1382"
       style="fill:#ffd42a;fill-opacity:1;stroke-width:0.054397" />
    <circle
       cx="128.8913"
       cy="122.35184"
       r="0.46963698"
       fill="#03a9f4"
       fill-rule="evenodd"
       id="circle1384"
       style="fill:#ffffff;fill-opacity:1;stroke-width:0.054397" />
    <circle
       cx="130.66577"
       cy="123.85722"
       r="0.65940106"
       fill="#ffffff"
       fill-rule="evenodd"
       id="circle1388"
       style="fill:#ffd42a;fill-opacity:1;stroke-width:0.054397" />
    <circle
       cx="130.66577"
       cy="123.85722"
       r="0.46963698"
       fill="#03a9f4"
       fill-rule="evenodd"
       id="circle1390"
       style="fill:#ffffff;fill-opacity:1;stroke-width:0.054397" />
    <path
       style="fill:#ff637d;fill-opacity:1;stroke-width:0.054397"
       id="path1382"
       fill-rule="evenodd"
       fill="#ffffff"
       d="m 122.5037,129.86833 c -0.0494,-0.003 -0.0997,0.0132 -0.1398,0.0475 l -1.95764,1.70874 v 0.87555 c 0.0251,-0.008 0.0493,-0.0205 0.0704,-0.039 l 2.33962,-2.04212 c 0.08,-0.0699 0.0873,-0.18975 0.0163,-0.26881 l -0.19592,-0.21799 c -0.0356,-0.0396 -0.0836,-0.0611 -0.13296,-0.064 z" />
    <rect
       style="fill:#ff637d;fill-opacity:1;stroke-width:0.054397"
       id="rect1407"
       fill-rule="evenodd"
       fill="#ffffff"
       ry="0.19182529"
       height="2.5843971"
       width="0.6766966"
       y="56.313892"
       x="-169.24364"
       transform="matrix(-0.42069173,-0.90720365,0.91318242,-0.40755107,0,0)" />
    <circle
       style="fill:#ff637d;fill-opacity:1;fill-rule:evenodd;stroke-width:0.054397"
       cx="122.55408"
       cy="130.22681"
       r="0.65940106"
       fill="#ffffff"
       id="circle1401" />
    <circle
       style="fill:#ffffff;fill-opacity:1;fill-rule:evenodd;stroke-width:0.054397"
       cx="122.55408"
       cy="130.22681"
       r="0.46963698"
       fill="#03a9f4"
       id="circle1403" />
    <rect
       style="fill:#ff637d;fill-opacity:1;stroke-width:0.054397"
       id="rect1409"
       fill-rule="evenodd"
       fill="#ffffff"
       ry="0.19182511"
       height="5.812849"
       width="0.67669886"
       y="-184.86569"
       x="-15.794351"
       transform="matrix(0.66839047,-0.74381058,-0.75338267,-0.65758236,0,0)" />
    <rect
       style="fill:#ff637d;fill-opacity:1;stroke-width:0.054397"
       id="rect1411"
       fill-rule="evenodd"
       fill="#ffffff"
       ry="0.19182649"
       height="2.584414"
       width="0.67670071"
       y="9.6474848"
       x="-185.38498"
       transform="matrix(-0.65604875,-0.75471852,0.76411707,-0.64507759,0,0)" />
    <circle
       style="fill:#ff637d;fill-opacity:1;stroke-width:0.054397"
       id="circle1415"
       fill-rule="evenodd"
       fill="#ffffff"
       r="0.65940106"
       cy="129.3754"
       cx="124.81161" />
    <circle
       style="fill:#ffffff;fill-opacity:1;stroke-width:0.054397"
       id="circle1417"
       fill-rule="evenodd"
       fill="#03a9f4"
       r="0.46963698"
       cy="129.3754"
       cx="124.81161" />
    <circle
       style="fill:#ff637d;fill-opacity:1;stroke-width:0.054397"
       id="circle1421"
       fill-rule="evenodd"
       fill="#ffffff"
       r="0.65940106"
       cy="133.06425"
       cx="128.96829" />
    <circle
       style="fill:#ffffff;fill-opacity:1;stroke-width:0.054397"
       id="circle1423"
       fill-rule="evenodd"
       fill="#03a9f4"
       r="0.46963698"
       cy="133.06425"
       cx="128.96829" />
    <circle
       style="fill:#ff637d;fill-opacity:1;stroke-width:0.054397"
       id="circle1427"
       fill-rule="evenodd"
       fill="#ffffff"
       r="0.65940106"
       cy="131.61726"
       cx="130.66577" />
    <circle
       style="fill:#ffffff;fill-opacity:1;stroke-width:0.054397"
       id="circle1429"
       fill-rule="evenodd"
       fill="#03a9f4"
       r="0.46963698"
       cy="131.61726"
       cx="130.66577" />
    <path
       d="m 122.5037,136.20396 c -0.0494,0.003 -0.0997,-0.0132 -0.1398,-0.0475 l -1.95764,-1.70874 v -0.87555 c 0.0251,0.008 0.0493,0.0205 0.0704,0.039 l 2.33962,2.04212 c 0.08,0.0699 0.0873,0.18975 0.0163,0.26881 l -0.19592,0.21799 c -0.0356,0.0396 -0.0836,0.0611 -0.13296,0.064 z"
       fill="#ffffff"
       fill-rule="evenodd"
       id="path1274"
       style="fill:#5f8dd3;fill-opacity:1;stroke-width:0.054397" />
    <rect
       transform="matrix(0.57482047,-0.81827955,-0.82649267,-0.56294748,0,0)"
       x="-43.654083"
       y="-181.04051"
       width="0.6766966"
       height="2.5843971"
       ry="0.19182529"
       fill="#ffffff"
       fill-rule="evenodd"
       id="rect1276"
       style="fill:#5f8dd3;fill-opacity:1;stroke-width:0.054397" />
    <circle
       id="circle1242"
       fill="#ffffff"
       r="0.65940106"
       cy="135.94844"
       cx="122.55408"
       style="fill:#5f8dd3;fill-opacity:1;fill-rule:evenodd;stroke-width:0.054397" />
    <circle
       id="circle1244"
       fill="#03a9f4"
       r="0.46963698"
       cy="135.94844"
       cx="122.55408"
       style="fill:#ffffff;fill-opacity:1;fill-rule:evenodd;stroke-width:0.054397" />
    <rect
       transform="matrix(0.18357381,-0.98300593,-0.9715685,-0.23675864,0,0)"
       x="-104.39259"
       y="-152.86174"
       width="0.67217731"
       height="4.9516139"
       ry="0.16340417"
       fill="#ffffff"
       fill-rule="evenodd"
       id="rect1278"
       style="fill:#5f8dd3;fill-opacity:1;stroke-width:0.0545444;stroke-miterlimit:4;stroke-dasharray:none" />
    <circle
       cx="124.81161"
       cy="137.3129"
       r="0.65940106"
       fill="#ffffff"
       fill-rule="evenodd"
       id="circle1248"
       style="fill:#5f8dd3;fill-opacity:1;stroke-width:0.054397" />
    <circle
       cx="124.81161"
       cy="137.3129"
       r="0.46963698"
       fill="#03a9f4"
       fill-rule="evenodd"
       id="circle1250"
       style="fill:#ffffff;fill-opacity:1;stroke-width:0.054397" />
    <rect
       transform="matrix(-0.45121642,-0.89241456,0.89883974,-0.43827746,0,0)"
       x="-181.08937"
       y="52.717628"
       width="0.67670071"
       height="2.584414"
       ry="0.19182649"
       fill="#ffffff"
       fill-rule="evenodd"
       id="rect1280"
       style="fill:#5f8dd3;fill-opacity:1;stroke-width:0.054397" />
    <circle
       cx="128.96829"
       cy="138.2567"
       r="0.65940106"
       fill="#ffffff"
       fill-rule="evenodd"
       id="circle1254"
       style="fill:#5f8dd3;fill-opacity:1;stroke-width:0.054397" />
    <circle
       cx="128.96829"
       cy="138.2567"
       r="0.46963698"
       fill="#03a9f4"
       fill-rule="evenodd"
       id="circle1256"
       style="fill:#ffffff;fill-opacity:1;stroke-width:0.054397" />
    <circle
       cx="130.66577"
       cy="137.3389"
       r="0.65940106"
       fill="#ffffff"
       fill-rule="evenodd"
       id="circle1260"
       style="fill:#5f8dd3;fill-opacity:1;stroke-width:0.054397" />
    <circle
       cx="130.66577"
       cy="137.3389"
       r="0.46963698"
       fill="#03a9f4"
       fill-rule="evenodd"
       id="circle1262"
       style="fill:#ffffff;fill-opacity:1;stroke-width:0.054397" />
    <rect
       style="fill:#bcd35f;fill-opacity:1;stroke-width:0.294817"
       id="rect1034"
       height="1.6372954"
       width="6.0518227"
       class="st7"
       y="117.82121"
       x="111.96631" />
    <rect
       style="fill:#ffffff;fill-opacity:1;stroke-width:0.36118"
       id="rect1036"
       height="0.30178007"
       width="2.6628022"
       class="st4"
       y="118.48896"
       x="112.8438" />
    <rect
       x="119.37476"
       y="117.82121"
       class="st7"
       width="6.0518227"
       height="1.6372954"
       id="rect1038"
       style="fill:#cccccc;fill-opacity:1;stroke-width:0.294817" />
    <rect
       x="120.25225"
       y="118.48896"
       class="st4"
       width="2.6628022"
       height="0.30178007"
       id="rect1040"
       style="fill:#ffffff;fill-opacity:1;stroke-width:0.36118" />
    <rect
       style="fill:#cccccc;fill-opacity:1;stroke-width:0.294817"
       id="rect1042"
       height="1.6372954"
       width="6.0518227"
       class="st7"
       y="117.82121"
       x="126.7832" />
    <rect
       style="fill:#ffffff;fill-opacity:1;stroke-width:0.36118"
       id="rect1044"
       height="0.30178007"
       width="2.6628022"
       class="st4"
       y="118.48896"
       x="127.6607" />
  </g>
</svg>
